<svg width="128" height="128" viewBox="0 0 128 128" fill="none" xmlns="http://www.w3.org/2000/svg">
<g clip-path="url(#clip0_1_56)">
<g filter="url(#filter0_i_1_56)">
<rect width="128" height="128" rx="19.3488" transform="matrix(-1 8.74228e-08 8.74228e-08 1 128 0)" fill="url(#paint0_linear_1_56)"/>
</g>
<rect x="-1" y="1" width="126" height="126" rx="18.3488" transform="matrix(-1 8.74228e-08 8.74228e-08 1 126 8.74228e-08)" stroke="white" stroke-opacity="0.1" stroke-width="2"/>
<mask id="path-3-outside-1_1_56" maskUnits="userSpaceOnUse" x="24.5245" y="16.8604" width="80" height="94" fill="black">
<rect fill="white" x="24.5245" y="16.8604" width="80" height="94"/>
<path fill-rule="evenodd" clip-rule="evenodd" d="M77.7266 24.8061C77.7266 20.9701 74.6169 17.8604 70.7808 17.8604L57.8816 17.8604C54.0456 17.8604 50.9359 20.9701 50.9359 24.8061C50.9359 28.4032 53.6703 31.3617 57.174 31.7162C52.7996 32.5058 48.5921 34.0307 44.731 36.223L41.5329 33.025C38.8205 30.3125 34.4227 30.3125 31.7102 33.025C28.9977 35.7375 28.9977 40.1353 31.7102 42.8478L34.0134 45.151C29.4905 50.5417 26.4691 57.0795 25.3215 64.1009C24.2393 70.7225 24.8737 77.4669 27.1061 83.7073C28.5185 87.6555 33.2572 88.8288 36.8614 86.6856C40.4656 84.5423 41.5115 79.8711 40.5867 75.7811C39.9066 72.7732 39.803 69.6399 40.308 66.5503C41.2252 60.9386 44.0912 55.8297 48.4023 52.1219C52.7134 48.4141 58.1935 46.3447 63.8793 46.2774C69.5651 46.2101 75.0927 48.1493 79.4902 51.7541C83.8878 55.3589 86.8739 60.3984 87.9236 65.9869C88.9734 71.5754 88.0195 77.355 85.2297 82.3098C82.4399 87.2646 77.9928 91.0774 72.6701 93.0779C69.7396 94.1793 66.647 94.6926 63.5641 94.6159C59.3721 94.5117 54.9969 96.4538 53.6026 100.409C52.2082 104.363 54.2885 108.78 58.4371 109.39C64.9942 110.354 71.7321 109.653 78.0125 107.292C86.6788 104.035 93.9195 97.8274 98.4617 89.7601C103.004 81.6929 104.557 72.2826 102.848 63.1836C101.139 54.0846 96.277 45.8793 89.1169 40.0101C83.9303 35.7585 77.7782 32.93 71.2621 31.7354C74.8736 31.4883 77.7266 28.4804 77.7266 24.8061Z"/>
</mask>
<path fill-rule="evenodd" clip-rule="evenodd" d="M77.7266 24.8061C77.7266 20.9701 74.6169 17.8604 70.7808 17.8604L57.8816 17.8604C54.0456 17.8604 50.9359 20.9701 50.9359 24.8061C50.9359 28.4032 53.6703 31.3617 57.174 31.7162C52.7996 32.5058 48.5921 34.0307 44.731 36.223L41.5329 33.025C38.8205 30.3125 34.4227 30.3125 31.7102 33.025C28.9977 35.7375 28.9977 40.1353 31.7102 42.8478L34.0134 45.151C29.4905 50.5417 26.4691 57.0795 25.3215 64.1009C24.2393 70.7225 24.8737 77.4669 27.1061 83.7073C28.5185 87.6555 33.2572 88.8288 36.8614 86.6856C40.4656 84.5423 41.5115 79.8711 40.5867 75.7811C39.9066 72.7732 39.803 69.6399 40.308 66.5503C41.2252 60.9386 44.0912 55.8297 48.4023 52.1219C52.7134 48.4141 58.1935 46.3447 63.8793 46.2774C69.5651 46.2101 75.0927 48.1493 79.4902 51.7541C83.8878 55.3589 86.8739 60.3984 87.9236 65.9869C88.9734 71.5754 88.0195 77.355 85.2297 82.3098C82.4399 87.2646 77.9928 91.0774 72.6701 93.0779C69.7396 94.1793 66.647 94.6926 63.5641 94.6159C59.3721 94.5117 54.9969 96.4538 53.6026 100.409C52.2082 104.363 54.2885 108.78 58.4371 109.39C64.9942 110.354 71.7321 109.653 78.0125 107.292C86.6788 104.035 93.9195 97.8274 98.4617 89.7601C103.004 81.6929 104.557 72.2826 102.848 63.1836C101.139 54.0846 96.277 45.8793 89.1169 40.0101C83.9303 35.7585 77.7782 32.93 71.2621 31.7354C74.8736 31.4883 77.7266 28.4804 77.7266 24.8061Z" fill="url(#paint1_linear_1_56)"/>
<path d="M57.174 31.7162L57.1989 31.4694L57.218 31.9603L57.174 31.7162ZM44.731 36.223L44.8534 36.4387L44.6891 36.532L44.5556 36.3984L44.731 36.223ZM41.5329 33.025L41.7084 32.8496L41.7084 32.8496L41.5329 33.025ZM31.7102 42.8478L31.5348 43.0232L31.5348 43.0232L31.7102 42.8478ZM34.0134 45.151L34.1889 44.9756L34.3496 45.1363L34.2035 45.3105L34.0134 45.151ZM25.3215 64.1009L25.5663 64.1409L25.5663 64.1409L25.3215 64.1009ZM27.1061 83.7073L27.3397 83.6237L27.3397 83.6237L27.1061 83.7073ZM40.5867 75.7811L40.8287 75.7264L40.8287 75.7264L40.5867 75.7811ZM40.308 66.5503L40.0632 66.5103L40.0632 66.5103L40.308 66.5503ZM63.8793 46.2774L63.8822 46.5255L63.8793 46.2774ZM79.4902 51.7541L79.333 51.9459L79.333 51.9459L79.4902 51.7541ZM85.2297 82.3098L85.0135 82.1881L85.0135 82.1881L85.2297 82.3098ZM72.6701 93.0779L72.7574 93.3101L72.7573 93.3101L72.6701 93.0779ZM63.5641 94.6159L63.5579 94.8639L63.5579 94.8639L63.5641 94.6159ZM58.4371 109.39L58.401 109.635L58.401 109.635L58.4371 109.39ZM78.0125 107.292L78.0998 107.525L78.0998 107.525L78.0125 107.292ZM98.4617 89.7601L98.2456 89.6384L98.2456 89.6384L98.4617 89.7601ZM89.1169 40.0101L89.2742 39.8183L89.2742 39.8183L89.1169 40.0101ZM71.2621 31.7354L71.2173 31.9794L71.2451 31.4879L71.2621 31.7354ZM70.7808 17.6123C74.7539 17.6123 77.9746 20.8331 77.9746 24.8061L77.4785 24.8061C77.4785 21.1071 74.4799 18.1084 70.7808 18.1084L70.7808 17.6123ZM57.8816 17.6123L70.7808 17.6123L70.7808 18.1084L57.8816 18.1084L57.8816 17.6123ZM50.6878 24.8061C50.6878 20.8331 53.9086 17.6123 57.8816 17.6123L57.8816 18.1084C54.1826 18.1084 51.1839 21.1071 51.1839 24.8061L50.6878 24.8061ZM57.149 31.963C53.52 31.5958 50.6878 28.5319 50.6878 24.8061L51.1839 24.8061C51.1839 28.2746 53.8207 31.1276 57.1989 31.4694L57.149 31.963ZM44.6085 36.0073C48.4939 33.8012 52.728 32.2667 57.1299 31.4721L57.218 31.9603C52.8712 32.745 48.6902 34.2602 44.8534 36.4387L44.6085 36.0073ZM44.5556 36.3984L41.3575 33.2004L41.7084 32.8496L44.9064 36.0476L44.5556 36.3984ZM41.3575 33.2004C38.7419 30.5848 34.5012 30.5848 31.8856 33.2004L31.5348 32.8496C34.3441 30.0403 38.899 30.0403 41.7084 32.8496L41.3575 33.2004ZM31.8856 33.2004C29.27 35.816 29.27 40.0568 31.8856 42.6724L31.5348 43.0232C28.7254 40.2138 28.7254 35.659 31.5348 32.8496L31.8856 33.2004ZM31.8856 42.6724L34.1889 44.9756L33.838 45.3264L31.5348 43.0232L31.8856 42.6724ZM25.0767 64.0609C26.2315 56.9952 29.272 50.4162 33.8234 44.9916L34.2035 45.3105C29.709 50.6672 26.7067 57.1638 25.5663 64.1409L25.0767 64.0609ZM26.8725 83.7908C24.6261 77.5112 23.9876 70.7242 25.0767 64.0609L25.5663 64.1409C24.4909 70.7207 25.1214 77.4227 27.3397 83.6237L26.8725 83.7908ZM36.9882 86.8988C33.2803 89.1036 28.3489 87.9177 26.8725 83.7908L27.3397 83.6237C28.6882 87.3934 33.234 88.5539 36.7346 86.4723L36.9882 86.8988ZM40.8287 75.7264C41.7666 79.8747 40.7201 84.6796 36.9882 86.8988L36.7346 86.4723C40.2112 84.405 41.2564 79.8675 40.3448 75.8358L40.8287 75.7264ZM40.5528 66.5903C40.053 69.6483 40.1555 72.7493 40.8287 75.7264L40.3448 75.8358C39.6577 72.797 39.553 69.6316 40.0632 66.5103L40.5528 66.5903ZM48.5641 52.31C44.2972 55.9797 41.4606 61.0362 40.5528 66.5903L40.0632 66.5103C40.9898 60.841 43.8852 55.6797 48.2405 51.9339L48.5641 52.31ZM63.8822 46.5255C58.2548 46.5921 52.8309 48.6402 48.5641 52.31L48.2405 51.9339C52.5958 48.188 58.1322 46.0973 63.8764 46.0294L63.8822 46.5255ZM79.333 51.9459C74.9805 48.3782 69.5097 46.4589 63.8822 46.5255L63.8764 46.0294C69.6205 45.9614 75.2048 47.9205 79.6475 51.5623L79.333 51.9459ZM87.6798 66.0327C86.6409 60.5016 83.6854 55.5137 79.333 51.9459L79.6475 51.5623C84.0902 55.204 87.107 60.2953 88.1674 65.9411L87.6798 66.0327ZM85.0135 82.1881C87.7747 77.2842 88.7188 71.5638 87.6798 66.0327L88.1674 65.9411C89.2279 71.5869 88.2643 77.4259 85.4458 82.4315L85.0135 82.1881ZM72.5828 92.8457C77.8509 90.8658 82.2524 87.0921 85.0135 82.1881L85.4458 82.4315C82.6274 87.4372 78.1347 91.2891 72.7574 93.3101L72.5828 92.8457ZM63.5702 94.3679C66.6215 94.4438 69.6824 93.9358 72.5828 92.8457L72.7573 93.3101C69.7968 94.4229 66.6724 94.9414 63.5579 94.8639L63.5702 94.3679ZM53.3686 100.326C54.8123 96.2313 59.3185 94.2622 63.5702 94.3679L63.5579 94.8639C59.4256 94.7611 55.1814 96.6764 53.8365 100.491L53.3686 100.326ZM58.401 109.635C54.0647 108.997 51.9342 104.395 53.3686 100.326L53.8365 100.491C52.4823 104.332 54.5122 108.562 58.4732 109.144L58.401 109.635ZM78.0998 107.525C71.7797 109.9 64.9994 110.606 58.401 109.635L58.4732 109.144C64.989 110.103 71.6844 109.406 77.9253 107.06L78.0998 107.525ZM98.6779 89.8818C94.107 98 86.8207 104.247 78.0998 107.525L77.9253 107.06C86.5369 103.824 93.732 97.6549 98.2456 89.6384L98.6779 89.8818ZM103.092 63.1378C104.812 72.2942 103.249 81.7637 98.6779 89.8818L98.2456 89.6384C102.759 81.622 104.303 72.2711 102.604 63.2294L103.092 63.1378ZM89.2742 39.8183C96.4793 45.7244 101.372 53.9815 103.092 63.1378L102.604 63.2294C100.906 54.1877 96.0746 46.0341 88.9597 40.202L89.2742 39.8183ZM71.3068 31.4914C77.864 32.6935 84.0548 35.5399 89.2742 39.8183L88.9597 40.202C83.8057 35.9772 77.6924 33.1664 71.2173 31.9794L71.3068 31.4914ZM77.9746 24.8061C77.9746 28.6117 75.0198 31.7269 71.279 31.9829L71.2451 31.4879C74.7274 31.2496 77.4785 28.349 77.4785 24.8061L77.9746 24.8061Z" fill="white" fill-opacity="0.1" mask="url(#path-3-outside-1_1_56)"/>
<path d="M57.174 31.7162L57.1989 31.4694L57.218 31.9603L57.174 31.7162ZM44.731 36.223L44.8534 36.4387L44.6891 36.532L44.5556 36.3984L44.731 36.223ZM41.5329 33.025L41.7084 32.8496L41.7084 32.8496L41.5329 33.025ZM31.7102 42.8478L31.5348 43.0232L31.5348 43.0232L31.7102 42.8478ZM34.0134 45.151L34.1889 44.9756L34.3496 45.1363L34.2035 45.3105L34.0134 45.151ZM25.3215 64.1009L25.5663 64.1409L25.5663 64.1409L25.3215 64.1009ZM27.1061 83.7073L27.3397 83.6237L27.3397 83.6237L27.1061 83.7073ZM40.5867 75.7811L40.8287 75.7264L40.8287 75.7264L40.5867 75.7811ZM40.308 66.5503L40.0632 66.5103L40.0632 66.5103L40.308 66.5503ZM63.8793 46.2774L63.8822 46.5255L63.8793 46.2774ZM79.4902 51.7541L79.333 51.9459L79.333 51.9459L79.4902 51.7541ZM85.2297 82.3098L85.0135 82.1881L85.0135 82.1881L85.2297 82.3098ZM72.6701 93.0779L72.7574 93.3101L72.7573 93.3101L72.6701 93.0779ZM63.5641 94.6159L63.5579 94.8639L63.5579 94.8639L63.5641 94.6159ZM58.4371 109.39L58.401 109.635L58.401 109.635L58.4371 109.39ZM78.0125 107.292L78.0998 107.525L78.0998 107.525L78.0125 107.292ZM98.4617 89.7601L98.2456 89.6384L98.2456 89.6384L98.4617 89.7601ZM89.1169 40.0101L89.2742 39.8183L89.2742 39.8183L89.1169 40.0101ZM71.2621 31.7354L71.2173 31.9794L71.2451 31.4879L71.2621 31.7354ZM70.7808 17.6123C74.7539 17.6123 77.9746 20.8331 77.9746 24.8061L77.4785 24.8061C77.4785 21.1071 74.4799 18.1084 70.7808 18.1084L70.7808 17.6123ZM57.8816 17.6123L70.7808 17.6123L70.7808 18.1084L57.8816 18.1084L57.8816 17.6123ZM50.6878 24.8061C50.6878 20.8331 53.9086 17.6123 57.8816 17.6123L57.8816 18.1084C54.1826 18.1084 51.1839 21.1071 51.1839 24.8061L50.6878 24.8061ZM57.149 31.963C53.52 31.5958 50.6878 28.5319 50.6878 24.8061L51.1839 24.8061C51.1839 28.2746 53.8207 31.1276 57.1989 31.4694L57.149 31.963ZM44.6085 36.0073C48.4939 33.8012 52.728 32.2667 57.1299 31.4721L57.218 31.9603C52.8712 32.745 48.6902 34.2602 44.8534 36.4387L44.6085 36.0073ZM44.5556 36.3984L41.3575 33.2004L41.7084 32.8496L44.9064 36.0476L44.5556 36.3984ZM41.3575 33.2004C38.7419 30.5848 34.5012 30.5848 31.8856 33.2004L31.5348 32.8496C34.3441 30.0403 38.899 30.0403 41.7084 32.8496L41.3575 33.2004ZM31.8856 33.2004C29.27 35.816 29.27 40.0568 31.8856 42.6724L31.5348 43.0232C28.7254 40.2138 28.7254 35.659 31.5348 32.8496L31.8856 33.2004ZM31.8856 42.6724L34.1889 44.9756L33.838 45.3264L31.5348 43.0232L31.8856 42.6724ZM25.0767 64.0609C26.2315 56.9952 29.272 50.4162 33.8234 44.9916L34.2035 45.3105C29.709 50.6672 26.7067 57.1638 25.5663 64.1409L25.0767 64.0609ZM26.8725 83.7908C24.6261 77.5112 23.9876 70.7242 25.0767 64.0609L25.5663 64.1409C24.4909 70.7207 25.1214 77.4227 27.3397 83.6237L26.8725 83.7908ZM36.9882 86.8988C33.2803 89.1036 28.3489 87.9177 26.8725 83.7908L27.3397 83.6237C28.6882 87.3934 33.234 88.5539 36.7346 86.4723L36.9882 86.8988ZM40.8287 75.7264C41.7666 79.8747 40.7201 84.6796 36.9882 86.8988L36.7346 86.4723C40.2112 84.405 41.2564 79.8675 40.3448 75.8358L40.8287 75.7264ZM40.5528 66.5903C40.053 69.6483 40.1555 72.7493 40.8287 75.7264L40.3448 75.8358C39.6577 72.797 39.553 69.6316 40.0632 66.5103L40.5528 66.5903ZM48.5641 52.31C44.2972 55.9797 41.4606 61.0362 40.5528 66.5903L40.0632 66.5103C40.9898 60.841 43.8852 55.6797 48.2405 51.9339L48.5641 52.31ZM63.8822 46.5255C58.2548 46.5921 52.8309 48.6402 48.5641 52.31L48.2405 51.9339C52.5958 48.188 58.1322 46.0973 63.8764 46.0294L63.8822 46.5255ZM79.333 51.9459C74.9805 48.3782 69.5097 46.4589 63.8822 46.5255L63.8764 46.0294C69.6205 45.9614 75.2048 47.9205 79.6475 51.5623L79.333 51.9459ZM87.6798 66.0327C86.6409 60.5016 83.6854 55.5137 79.333 51.9459L79.6475 51.5623C84.0902 55.204 87.107 60.2953 88.1674 65.9411L87.6798 66.0327ZM85.0135 82.1881C87.7747 77.2842 88.7188 71.5638 87.6798 66.0327L88.1674 65.9411C89.2279 71.5869 88.2643 77.4259 85.4458 82.4315L85.0135 82.1881ZM72.5828 92.8457C77.8509 90.8658 82.2524 87.0921 85.0135 82.1881L85.4458 82.4315C82.6274 87.4372 78.1347 91.2891 72.7574 93.3101L72.5828 92.8457ZM63.5702 94.3679C66.6215 94.4438 69.6824 93.9358 72.5828 92.8457L72.7573 93.3101C69.7968 94.4229 66.6724 94.9414 63.5579 94.8639L63.5702 94.3679ZM53.3686 100.326C54.8123 96.2313 59.3185 94.2622 63.5702 94.3679L63.5579 94.8639C59.4256 94.7611 55.1814 96.6764 53.8365 100.491L53.3686 100.326ZM58.401 109.635C54.0647 108.997 51.9342 104.395 53.3686 100.326L53.8365 100.491C52.4823 104.332 54.5122 108.562 58.4732 109.144L58.401 109.635ZM78.0998 107.525C71.7797 109.9 64.9994 110.606 58.401 109.635L58.4732 109.144C64.989 110.103 71.6844 109.406 77.9253 107.06L78.0998 107.525ZM98.6779 89.8818C94.107 98 86.8207 104.247 78.0998 107.525L77.9253 107.06C86.5369 103.824 93.732 97.6549 98.2456 89.6384L98.6779 89.8818ZM103.092 63.1378C104.812 72.2942 103.249 81.7637 98.6779 89.8818L98.2456 89.6384C102.759 81.622 104.303 72.2711 102.604 63.2294L103.092 63.1378ZM89.2742 39.8183C96.4793 45.7244 101.372 53.9815 103.092 63.1378L102.604 63.2294C100.906 54.1877 96.0746 46.0341 88.9597 40.202L89.2742 39.8183ZM71.3068 31.4914C77.864 32.6935 84.0548 35.5399 89.2742 39.8183L88.9597 40.202C83.8057 35.9772 77.6924 33.1664 71.2173 31.9794L71.3068 31.4914ZM77.9746 24.8061C77.9746 28.6117 75.0198 31.7269 71.279 31.9829L71.2451 31.4879C74.7274 31.2496 77.4785 28.349 77.4785 24.8061L77.9746 24.8061Z" fill="black" fill-opacity="0.1" mask="url(#path-3-outside-1_1_56)"/>
<g filter="url(#filter1_f_1_56)">
<ellipse cx="24.1447" cy="21.0026" rx="24.1447" ry="21.0026" transform="matrix(-1 8.74228e-08 8.74228e-08 1 84.0099 83.6797)" fill="url(#paint2_linear_1_56)"/>
</g>
</g>
<defs>
<filter id="filter0_i_1_56" x="0" y="0" width="128" height="128" filterUnits="userSpaceOnUse" color-interpolation-filters="sRGB">
<feFlood flood-opacity="0" result="BackgroundImageFix"/>
<feBlend mode="normal" in="SourceGraphic" in2="BackgroundImageFix" result="shape"/>
<feColorMatrix in="SourceAlpha" type="matrix" values="0 0 0 0 0 0 0 0 0 0 0 0 0 0 0 0 0 0 127 0" result="hardAlpha"/>
<feMorphology radius="1" operator="erode" in="SourceAlpha" result="effect1_innerShadow_1_56"/>
<feOffset/>
<feComposite in2="hardAlpha" operator="arithmetic" k2="-1" k3="1"/>
<feColorMatrix type="matrix" values="0 0 0 0 0 0 0 0 0 0 0 0 0 0 0 0 0 0 0.3 0"/>
<feBlend mode="normal" in2="shape" result="effect1_innerShadow_1_56"/>
</filter>
<filter id="filter1_f_1_56" x="27.2864" y="75.2456" width="65.1576" height="58.8734" filterUnits="userSpaceOnUse" color-interpolation-filters="sRGB">
<feFlood flood-opacity="0" result="BackgroundImageFix"/>
<feBlend mode="normal" in="SourceGraphic" in2="BackgroundImageFix" result="shape"/>
<feGaussianBlur stdDeviation="4.21705" result="effect1_foregroundBlur_1_56"/>
</filter>
<linearGradient id="paint0_linear_1_56" x1="117.416" y1="5.45737" x2="9.0956" y2="130.15" gradientUnits="userSpaceOnUse">
<stop stop-color="#E52727"/>
<stop offset="1" stop-color="#9C2222"/>
</linearGradient>
<linearGradient id="paint1_linear_1_56" x1="37.9442" y1="40.3114" x2="64.1654" y2="129.654" gradientUnits="userSpaceOnUse">
<stop stop-color="white"/>
<stop offset="0.405" stop-color="white" stop-opacity="0.2"/>
<stop offset="0.65" stop-color="white" stop-opacity="0.07"/>
<stop offset="0.8" stop-color="white" stop-opacity="0"/>
</linearGradient>
<linearGradient id="paint2_linear_1_56" x1="29.9328" y1="15.2145" x2="6.28424" y2="43.6589" gradientUnits="userSpaceOnUse">
<stop stop-color="#BB2626"/>
<stop offset="1" stop-color="#A72222"/>
</linearGradient>
<clipPath id="clip0_1_56">
<rect width="128" height="128" fill="white"/>
</clipPath>
</defs>
</svg>
