<svg width="64" height="64" viewBox="0 0 64 64" fill="none" xmlns="http://www.w3.org/2000/svg">
<g clip-path="url(#clip0_1_48)">
<rect width="64" height="64" rx="9.67442" transform="matrix(-1 8.74228e-08 8.74228e-08 1 64 0)" fill="url(#paint0_linear_1_48)"/>
<rect x="-0.25" y="0.25" width="63.5" height="63.5" rx="9.42442" transform="matrix(-1 8.74228e-08 8.74228e-08 1 63.5 2.18557e-08)" stroke="white" stroke-opacity="0.1" stroke-width="0.5"/>
<mask id="path-3-outside-1_1_48" maskUnits="userSpaceOnUse" x="11.7623" y="7.93018" width="41" height="48" fill="black">
<rect fill="white" x="11.7623" y="7.93018" width="41" height="48"/>
<path fill-rule="evenodd" clip-rule="evenodd" d="M38.8633 12.403C38.8633 10.485 37.3084 8.93018 35.3904 8.93018L28.9408 8.93018C27.0228 8.93018 25.4679 10.485 25.4679 12.403C25.4679 14.2016 26.8352 15.6809 28.587 15.8581C26.3998 16.2529 24.296 17.0153 22.3655 18.1115L20.7665 16.5125C19.4102 15.1563 17.2113 15.1563 15.8551 16.5125C14.4989 17.8687 14.4989 20.0676 15.8551 21.4239L17.0067 22.5755C14.7453 25.2709 13.2345 28.5398 12.6608 32.0505C12.1196 35.3612 12.4369 38.7335 13.5531 41.8536C14.2593 43.8278 16.6286 44.4144 18.4307 43.3428C20.2328 42.2712 20.7557 39.9356 20.2934 37.8905C19.9533 36.3866 19.9015 34.82 20.154 33.2752C20.6126 30.4693 22.0456 27.9149 24.2011 26.061C26.3567 24.2071 29.0967 23.1724 31.9396 23.1387C34.7825 23.1051 37.5463 24.0747 39.7451 25.8771C41.9439 27.6794 43.437 30.1992 43.9618 32.9935C44.4867 35.7877 44.0097 38.6775 42.6148 41.1549C41.2199 43.6323 38.9964 45.5387 36.335 46.539C34.8698 47.0897 33.3235 47.3463 31.782 47.308C29.686 47.2558 27.4984 48.2269 26.8013 50.2043C26.1041 52.1816 27.1442 54.3898 29.2186 54.6949C32.4971 55.1771 35.866 54.8265 39.0063 53.6462C43.3394 52.0177 46.9597 48.9137 49.2309 44.8801C51.502 40.8464 52.2785 36.1413 51.424 31.5918C50.5694 27.0423 48.1385 22.9397 44.5585 20.0051C41.9651 17.8793 38.8891 16.465 35.631 15.8677C37.4368 15.7442 38.8633 14.2402 38.8633 12.403Z"/>
</mask>
<path fill-rule="evenodd" clip-rule="evenodd" d="M38.8633 12.403C38.8633 10.485 37.3084 8.93018 35.3904 8.93018L28.9408 8.93018C27.0228 8.93018 25.4679 10.485 25.4679 12.403C25.4679 14.2016 26.8352 15.6809 28.587 15.8581C26.3998 16.2529 24.296 17.0153 22.3655 18.1115L20.7665 16.5125C19.4102 15.1563 17.2113 15.1563 15.8551 16.5125C14.4989 17.8687 14.4989 20.0676 15.8551 21.4239L17.0067 22.5755C14.7453 25.2709 13.2345 28.5398 12.6608 32.0505C12.1196 35.3612 12.4369 38.7335 13.5531 41.8536C14.2593 43.8278 16.6286 44.4144 18.4307 43.3428C20.2328 42.2712 20.7557 39.9356 20.2934 37.8905C19.9533 36.3866 19.9015 34.82 20.154 33.2752C20.6126 30.4693 22.0456 27.9149 24.2011 26.061C26.3567 24.2071 29.0967 23.1724 31.9396 23.1387C34.7825 23.1051 37.5463 24.0747 39.7451 25.8771C41.9439 27.6794 43.437 30.1992 43.9618 32.9935C44.4867 35.7877 44.0097 38.6775 42.6148 41.1549C41.2199 43.6323 38.9964 45.5387 36.335 46.539C34.8698 47.0897 33.3235 47.3463 31.782 47.308C29.686 47.2558 27.4984 48.2269 26.8013 50.2043C26.1041 52.1816 27.1442 54.3898 29.2186 54.6949C32.4971 55.1771 35.866 54.8265 39.0063 53.6462C43.3394 52.0177 46.9597 48.9137 49.2309 44.8801C51.502 40.8464 52.2785 36.1413 51.424 31.5918C50.5694 27.0423 48.1385 22.9397 44.5585 20.0051C41.9651 17.8793 38.8891 16.465 35.631 15.8677C37.4368 15.7442 38.8633 14.2402 38.8633 12.403Z" fill="url(#paint1_linear_1_48)"/>
<path d="M28.587 15.8581L28.5995 15.7347L28.6091 15.9802L28.587 15.8581ZM22.3655 18.1115L22.4267 18.2194L22.3446 18.266L22.2778 18.1992L22.3655 18.1115ZM20.7665 16.5125L20.8542 16.4248L20.8542 16.4248L20.7665 16.5125ZM15.8551 21.4239L15.9428 21.3362L15.9428 21.3362L15.8551 21.4239ZM17.0067 22.5755L17.0944 22.4878L17.1748 22.5682L17.1017 22.6552L17.0067 22.5755ZM12.6608 32.0505L12.7832 32.0705L12.7832 32.0705L12.6608 32.0505ZM13.5531 41.8536L13.6698 41.8119L13.6698 41.8119L13.5531 41.8536ZM18.4307 43.3428L18.4941 43.4494L18.4941 43.4494L18.4307 43.3428ZM20.2934 37.8905L20.1724 37.9179L20.1724 37.9179L20.2934 37.8905ZM20.154 33.2752L20.0316 33.2552L20.0316 33.2552L20.154 33.2752ZM24.2011 26.061L24.1203 25.9669L24.1203 25.9669L24.2011 26.061ZM31.9396 23.1387L31.9411 23.2627L31.9396 23.1387ZM39.7451 25.8771L39.8237 25.7811L39.8237 25.7811L39.7451 25.8771ZM43.9618 32.9935L43.8399 33.0164L43.8399 33.0164L43.9618 32.9935ZM42.6148 41.1549L42.5068 41.0941L42.5068 41.0941L42.6148 41.1549ZM36.335 46.539L36.2914 46.4229L36.2914 46.4229L36.335 46.539ZM31.782 47.308L31.7789 47.432L31.7789 47.432L31.782 47.308ZM26.8013 50.2043L26.6843 50.163L26.6843 50.163L26.8013 50.2043ZM29.2186 54.6949L29.2366 54.5722L29.2366 54.5722L29.2186 54.6949ZM39.0063 53.6462L38.9626 53.5301L38.9626 53.5301L39.0063 53.6462ZM49.2309 44.8801L49.1228 44.8192L49.1228 44.8192L49.2309 44.8801ZM51.424 31.5918L51.3021 31.6147L51.424 31.5918ZM44.5585 20.0051L44.6371 19.9092L44.6371 19.9092L44.5585 20.0051ZM35.631 15.8677L35.6086 15.9897L35.6225 15.744L35.631 15.8677ZM35.3904 8.80615C37.3769 8.80615 38.9873 10.4165 38.9873 12.403L38.7392 12.403C38.7392 10.5535 37.2399 9.05421 35.3904 9.05421L35.3904 8.80615ZM28.9408 8.80615L35.3904 8.80615L35.3904 9.05421L28.9408 9.05421L28.9408 8.80615ZM25.3439 12.403C25.3439 10.4165 26.9543 8.80615 28.9408 8.80615L28.9408 9.05421C27.0913 9.05421 25.5919 10.5535 25.5919 12.403L25.3439 12.403ZM28.5745 15.9815C26.76 15.7979 25.3439 14.2659 25.3439 12.403L25.5919 12.403C25.5919 14.1373 26.9104 15.5638 28.5995 15.7347L28.5745 15.9815ZM22.3042 18.0037C24.247 16.9006 26.364 16.1333 28.565 15.7361L28.6091 15.9802C26.4356 16.3725 24.3451 17.1301 22.4267 18.2194L22.3042 18.0037ZM22.2778 18.1992L20.6788 16.6002L20.8542 16.4248L22.4532 18.0238L22.2778 18.1992ZM20.6788 16.6002C19.371 15.2924 17.2506 15.2924 15.9428 16.6002L15.7674 16.4248C17.1721 15.0201 19.4495 15.0201 20.8542 16.4248L20.6788 16.6002ZM15.9428 16.6002C14.635 17.908 14.635 20.0284 15.9428 21.3362L15.7674 21.5116C14.3627 20.1069 14.3627 17.8295 15.7674 16.4248L15.9428 16.6002ZM15.9428 21.3362L17.0944 22.4878L16.919 22.6632L15.7674 21.5116L15.9428 21.3362ZM12.5384 32.0305C13.1158 28.4976 14.636 25.2081 16.9117 22.4958L17.1017 22.6552C14.8545 25.3336 13.3533 28.5819 12.7832 32.0705L12.5384 32.0305ZM13.4363 41.8954C12.3131 38.7556 11.9938 35.3621 12.5384 32.0305L12.7832 32.0705C12.2455 35.3604 12.5607 38.7114 13.6698 41.8119L13.4363 41.8954ZM18.4941 43.4494C16.6401 44.5518 14.1744 43.9589 13.4363 41.8954L13.6698 41.8119C14.3441 43.6967 16.617 44.277 18.3673 43.2362L18.4941 43.4494ZM20.4143 37.8632C20.8833 39.9374 20.36 42.3398 18.4941 43.4494L18.3673 43.2362C20.1056 42.2025 20.6282 39.9338 20.1724 37.9179L20.4143 37.8632ZM20.2764 33.2952C20.0265 34.8241 20.0778 36.3747 20.4143 37.8632L20.1724 37.9179C19.8288 36.3985 19.7765 34.8158 20.0316 33.2552L20.2764 33.2952ZM24.282 26.155C22.1486 27.9899 20.7303 30.5181 20.2764 33.2952L20.0316 33.2552C20.4949 30.4205 21.9426 27.8399 24.1203 25.9669L24.282 26.155ZM31.9411 23.2627C29.1274 23.296 26.4154 24.3201 24.282 26.155L24.1203 25.9669C26.2979 24.094 29.0661 23.0487 31.9382 23.0147L31.9411 23.2627ZM39.6665 25.973C37.4903 24.1891 34.7548 23.2295 31.9411 23.2627L31.9382 23.0147C34.8103 22.9807 37.6024 23.9603 39.8237 25.7811L39.6665 25.973ZM43.8399 33.0164C43.3205 30.2508 41.8427 27.7569 39.6665 25.973L39.8237 25.7811C42.0451 27.602 43.5535 30.1477 44.0837 32.9706L43.8399 33.0164ZM42.5068 41.0941C43.8873 38.6421 44.3594 35.7819 43.8399 33.0164L44.0837 32.9706C44.614 35.7935 44.1321 38.713 42.7229 41.2158L42.5068 41.0941ZM36.2914 46.4229C38.9254 45.4329 41.1262 43.5461 42.5068 41.0941L42.7229 41.2158C41.3137 43.7186 39.0673 45.6446 36.3787 46.6551L36.2914 46.4229ZM31.7851 47.184C33.3108 47.2219 34.8412 46.9679 36.2914 46.4229L36.3787 46.6551C34.8984 47.2114 33.3362 47.4707 31.7789 47.432L31.7851 47.184ZM26.6843 50.163C27.4062 48.1157 29.6592 47.1311 31.7851 47.184L31.7789 47.432C29.7128 47.3806 27.5907 48.3382 26.9182 50.2455L26.6843 50.163ZM29.2005 54.8176C27.0324 54.4987 25.9671 52.1973 26.6843 50.163L26.9182 50.2455C26.2411 52.166 27.2561 54.2809 29.2366 54.5722L29.2005 54.8176ZM39.0499 53.7623C35.8899 54.95 32.4997 55.3029 29.2005 54.8176L29.2366 54.5722C32.4945 55.0514 35.8422 54.7029 38.9626 53.5301L39.0499 53.7623ZM49.3389 44.9409C47.0535 49 43.4103 52.1235 39.0499 53.7623L38.9626 53.5301C43.2684 51.9118 46.866 48.8274 49.1228 44.8192L49.3389 44.9409ZM51.5459 31.5689C52.4058 36.1471 51.6244 40.8819 49.3389 44.9409L49.1228 44.8192C51.3796 40.811 52.1513 36.1355 51.3021 31.6147L51.5459 31.5689ZM44.6371 19.9092C48.2397 22.8622 50.6859 26.9907 51.5459 31.5689L51.3021 31.6147C50.4529 27.0939 48.0373 23.0171 44.4798 20.101L44.6371 19.9092ZM35.6533 15.7457C38.932 16.3467 42.0274 17.7699 44.6371 19.9092L44.4798 20.101C41.9028 17.9886 38.8462 16.5832 35.6086 15.9897L35.6533 15.7457ZM38.9873 12.403C38.9873 14.3059 37.5098 15.8635 35.6394 15.9915L35.6225 15.744C37.3637 15.6248 38.7392 14.1745 38.7392 12.403L38.9873 12.403Z" fill="white" fill-opacity="0.1" mask="url(#path-3-outside-1_1_48)"/>
<path d="M28.587 15.8581L28.5995 15.7347L28.6091 15.9802L28.587 15.8581ZM22.3655 18.1115L22.4267 18.2194L22.3446 18.266L22.2778 18.1992L22.3655 18.1115ZM20.7665 16.5125L20.8542 16.4248L20.8542 16.4248L20.7665 16.5125ZM15.8551 21.4239L15.9428 21.3362L15.9428 21.3362L15.8551 21.4239ZM17.0067 22.5755L17.0944 22.4878L17.1748 22.5682L17.1017 22.6552L17.0067 22.5755ZM12.6608 32.0505L12.7832 32.0705L12.7832 32.0705L12.6608 32.0505ZM13.5531 41.8536L13.6698 41.8119L13.6698 41.8119L13.5531 41.8536ZM18.4307 43.3428L18.4941 43.4494L18.4941 43.4494L18.4307 43.3428ZM20.2934 37.8905L20.1724 37.9179L20.1724 37.9179L20.2934 37.8905ZM20.154 33.2752L20.0316 33.2552L20.0316 33.2552L20.154 33.2752ZM24.2011 26.061L24.1203 25.9669L24.1203 25.9669L24.2011 26.061ZM31.9396 23.1387L31.9411 23.2627L31.9396 23.1387ZM39.7451 25.8771L39.8237 25.7811L39.8237 25.7811L39.7451 25.8771ZM43.9618 32.9935L43.8399 33.0164L43.8399 33.0164L43.9618 32.9935ZM42.6148 41.1549L42.5068 41.0941L42.5068 41.0941L42.6148 41.1549ZM36.335 46.539L36.2914 46.4229L36.2914 46.4229L36.335 46.539ZM31.782 47.308L31.7789 47.432L31.7789 47.432L31.782 47.308ZM26.8013 50.2043L26.6843 50.163L26.6843 50.163L26.8013 50.2043ZM29.2186 54.6949L29.2366 54.5722L29.2366 54.5722L29.2186 54.6949ZM39.0063 53.6462L38.9626 53.5301L38.9626 53.5301L39.0063 53.6462ZM49.2309 44.8801L49.1228 44.8192L49.1228 44.8192L49.2309 44.8801ZM51.424 31.5918L51.3021 31.6147L51.424 31.5918ZM44.5585 20.0051L44.6371 19.9092L44.6371 19.9092L44.5585 20.0051ZM35.631 15.8677L35.6086 15.9897L35.6225 15.744L35.631 15.8677ZM35.3904 8.80615C37.3769 8.80615 38.9873 10.4165 38.9873 12.403L38.7392 12.403C38.7392 10.5535 37.2399 9.05421 35.3904 9.05421L35.3904 8.80615ZM28.9408 8.80615L35.3904 8.80615L35.3904 9.05421L28.9408 9.05421L28.9408 8.80615ZM25.3439 12.403C25.3439 10.4165 26.9543 8.80615 28.9408 8.80615L28.9408 9.05421C27.0913 9.05421 25.5919 10.5535 25.5919 12.403L25.3439 12.403ZM28.5745 15.9815C26.76 15.7979 25.3439 14.2659 25.3439 12.403L25.5919 12.403C25.5919 14.1373 26.9104 15.5638 28.5995 15.7347L28.5745 15.9815ZM22.3042 18.0037C24.247 16.9006 26.364 16.1333 28.565 15.7361L28.6091 15.9802C26.4356 16.3725 24.3451 17.1301 22.4267 18.2194L22.3042 18.0037ZM22.2778 18.1992L20.6788 16.6002L20.8542 16.4248L22.4532 18.0238L22.2778 18.1992ZM20.6788 16.6002C19.371 15.2924 17.2506 15.2924 15.9428 16.6002L15.7674 16.4248C17.1721 15.0201 19.4495 15.0201 20.8542 16.4248L20.6788 16.6002ZM15.9428 16.6002C14.635 17.908 14.635 20.0284 15.9428 21.3362L15.7674 21.5116C14.3627 20.1069 14.3627 17.8295 15.7674 16.4248L15.9428 16.6002ZM15.9428 21.3362L17.0944 22.4878L16.919 22.6632L15.7674 21.5116L15.9428 21.3362ZM12.5384 32.0305C13.1158 28.4976 14.636 25.2081 16.9117 22.4958L17.1017 22.6552C14.8545 25.3336 13.3533 28.5819 12.7832 32.0705L12.5384 32.0305ZM13.4363 41.8954C12.3131 38.7556 11.9938 35.3621 12.5384 32.0305L12.7832 32.0705C12.2455 35.3604 12.5607 38.7114 13.6698 41.8119L13.4363 41.8954ZM18.4941 43.4494C16.6401 44.5518 14.1744 43.9589 13.4363 41.8954L13.6698 41.8119C14.3441 43.6967 16.617 44.277 18.3673 43.2362L18.4941 43.4494ZM20.4143 37.8632C20.8833 39.9374 20.36 42.3398 18.4941 43.4494L18.3673 43.2362C20.1056 42.2025 20.6282 39.9338 20.1724 37.9179L20.4143 37.8632ZM20.2764 33.2952C20.0265 34.8241 20.0778 36.3747 20.4143 37.8632L20.1724 37.9179C19.8288 36.3985 19.7765 34.8158 20.0316 33.2552L20.2764 33.2952ZM24.282 26.155C22.1486 27.9899 20.7303 30.5181 20.2764 33.2952L20.0316 33.2552C20.4949 30.4205 21.9426 27.8399 24.1203 25.9669L24.282 26.155ZM31.9411 23.2627C29.1274 23.296 26.4154 24.3201 24.282 26.155L24.1203 25.9669C26.2979 24.094 29.0661 23.0487 31.9382 23.0147L31.9411 23.2627ZM39.6665 25.973C37.4903 24.1891 34.7548 23.2295 31.9411 23.2627L31.9382 23.0147C34.8103 22.9807 37.6024 23.9603 39.8237 25.7811L39.6665 25.973ZM43.8399 33.0164C43.3205 30.2508 41.8427 27.7569 39.6665 25.973L39.8237 25.7811C42.0451 27.602 43.5535 30.1477 44.0837 32.9706L43.8399 33.0164ZM42.5068 41.0941C43.8873 38.6421 44.3594 35.7819 43.8399 33.0164L44.0837 32.9706C44.614 35.7935 44.1321 38.713 42.7229 41.2158L42.5068 41.0941ZM36.2914 46.4229C38.9254 45.4329 41.1262 43.5461 42.5068 41.0941L42.7229 41.2158C41.3137 43.7186 39.0673 45.6446 36.3787 46.6551L36.2914 46.4229ZM31.7851 47.184C33.3108 47.2219 34.8412 46.9679 36.2914 46.4229L36.3787 46.6551C34.8984 47.2114 33.3362 47.4707 31.7789 47.432L31.7851 47.184ZM26.6843 50.163C27.4062 48.1157 29.6592 47.1311 31.7851 47.184L31.7789 47.432C29.7128 47.3806 27.5907 48.3382 26.9182 50.2455L26.6843 50.163ZM29.2005 54.8176C27.0324 54.4987 25.9671 52.1973 26.6843 50.163L26.9182 50.2455C26.2411 52.166 27.2561 54.2809 29.2366 54.5722L29.2005 54.8176ZM39.0499 53.7623C35.8899 54.95 32.4997 55.3029 29.2005 54.8176L29.2366 54.5722C32.4945 55.0514 35.8422 54.7029 38.9626 53.5301L39.0499 53.7623ZM49.3389 44.9409C47.0535 49 43.4103 52.1235 39.0499 53.7623L38.9626 53.5301C43.2684 51.9118 46.866 48.8274 49.1228 44.8192L49.3389 44.9409ZM51.5459 31.5689C52.4058 36.1471 51.6244 40.8819 49.3389 44.9409L49.1228 44.8192C51.3796 40.811 52.1513 36.1355 51.3021 31.6147L51.5459 31.5689ZM44.6371 19.9092C48.2397 22.8622 50.6859 26.9907 51.5459 31.5689L51.3021 31.6147C50.4529 27.0939 48.0373 23.0171 44.4798 20.101L44.6371 19.9092ZM35.6533 15.7457C38.932 16.3467 42.0274 17.7699 44.6371 19.9092L44.4798 20.101C41.9028 17.9886 38.8462 16.5832 35.6086 15.9897L35.6533 15.7457ZM38.9873 12.403C38.9873 14.3059 37.5098 15.8635 35.6394 15.9915L35.6225 15.744C37.3637 15.6248 38.7392 14.1745 38.7392 12.403L38.9873 12.403Z" fill="black" fill-opacity="0.1" mask="url(#path-3-outside-1_1_48)"/>
<g filter="url(#filter0_f_1_48)">
<ellipse cx="12.0724" cy="10.5013" rx="12.0724" ry="10.5013" transform="matrix(-1 8.74228e-08 8.74228e-08 1 42.0049 41.8398)" fill="url(#paint2_linear_1_48)"/>
</g>
</g>
<defs>
<filter id="filter0_f_1_48" x="13.6432" y="37.6228" width="32.5788" height="29.4367" filterUnits="userSpaceOnUse" color-interpolation-filters="sRGB">
<feFlood flood-opacity="0" result="BackgroundImageFix"/>
<feBlend mode="normal" in="SourceGraphic" in2="BackgroundImageFix" result="shape"/>
<feGaussianBlur stdDeviation="2.10853" result="effect1_foregroundBlur_1_48"/>
</filter>
<linearGradient id="paint0_linear_1_48" x1="58.708" y1="2.72868" x2="4.5478" y2="65.0749" gradientUnits="userSpaceOnUse">
<stop stop-color="#E52727"/>
<stop offset="1" stop-color="#9C2222"/>
</linearGradient>
<linearGradient id="paint1_linear_1_48" x1="18.9721" y1="20.1557" x2="32.0827" y2="64.8268" gradientUnits="userSpaceOnUse">
<stop stop-color="white"/>
<stop offset="0.405" stop-color="white" stop-opacity="0.2"/>
<stop offset="0.65" stop-color="white" stop-opacity="0.07"/>
<stop offset="0.8" stop-color="white" stop-opacity="0"/>
</linearGradient>
<linearGradient id="paint2_linear_1_48" x1="14.9664" y1="7.60723" x2="3.14212" y2="21.8295" gradientUnits="userSpaceOnUse">
<stop stop-color="#BB2626"/>
<stop offset="1" stop-color="#A72222"/>
</linearGradient>
<clipPath id="clip0_1_48">
<rect width="64" height="64" fill="white"/>
</clipPath>
</defs>
</svg>
