<svg width="24" height="24" viewBox="0 0 24 24" fill="none" xmlns="http://www.w3.org/2000/svg">
<g clip-path="url(#clip0_1_23)">
<rect width="24" height="24" rx="4.83721" transform="matrix(-1 8.74228e-08 8.74228e-08 1 24 0)" fill="url(#paint0_linear_1_23)"/>
<rect x="-0.1" y="0.1" width="23.8" height="23.8" rx="4.73721" transform="matrix(-1 8.74228e-08 8.74228e-08 1 23.8 8.74228e-09)" stroke="white" stroke-opacity="0.1" stroke-width="0.2"/>
<mask id="path-3-outside-1_1_23" maskUnits="userSpaceOnUse" x="4.41089" y="2.34882" width="16" height="19" fill="black">
<rect fill="white" x="4.41089" y="2.34882" width="16" height="19"/>
<path fill-rule="evenodd" clip-rule="evenodd" d="M14.5737 4.65114C14.5737 3.93189 13.9906 3.34882 13.2714 3.34882L10.8528 3.34882C10.1335 3.34882 9.55044 3.93189 9.55044 4.65114C9.55044 5.32566 10.0632 5.88041 10.7203 5.94681C9.90003 6.09485 9.1111 6.38076 8.38712 6.79184L7.78747 6.19219C7.27888 5.6836 6.45429 5.6836 5.9457 6.19219C5.43711 6.70078 5.43711 7.52536 5.9457 8.03395L6.37757 8.46583C5.52951 9.47658 4.963 10.7024 4.74782 12.0189C4.5449 13.2605 4.66386 14.5251 5.08243 15.6951C5.34726 16.4354 6.23575 16.6554 6.91155 16.2536C7.58734 15.8517 7.78344 14.9759 7.61005 14.209C7.48252 13.645 7.46311 13.0575 7.55779 12.4782C7.72976 11.426 8.26714 10.4681 9.07547 9.77289C9.88379 9.07768 10.9113 8.68966 11.9774 8.67705C13.0435 8.66444 14.0799 9.02803 14.9045 9.70393C15.729 10.3798 16.2889 11.3247 16.4857 12.3726C16.6825 13.4204 16.5037 14.5041 15.9806 15.4331C15.4575 16.3622 14.6237 17.0771 13.6257 17.4521C13.0762 17.6587 12.4963 17.7549 11.9183 17.7405C11.1323 17.721 10.312 18.0851 10.0505 18.8266C9.78908 19.5681 10.1791 20.3962 10.957 20.5106C12.1865 20.6915 13.4498 20.56 14.6274 20.1174C16.2523 19.5066 17.6099 18.3427 18.4616 16.8301C19.3133 15.3174 19.6045 13.553 19.284 11.847C18.9636 10.1409 18.052 8.6024 16.7095 7.50193C15.7369 6.70473 14.5833 6.17436 13.3615 5.95039C14.0387 5.9041 14.5737 5.34009 14.5737 4.65114Z"/>
</mask>
<path fill-rule="evenodd" clip-rule="evenodd" d="M14.5737 4.65114C14.5737 3.93189 13.9906 3.34882 13.2714 3.34882L10.8528 3.34882C10.1335 3.34882 9.55044 3.93189 9.55044 4.65114C9.55044 5.32566 10.0632 5.88041 10.7203 5.94681C9.90003 6.09485 9.1111 6.38076 8.38712 6.79184L7.78747 6.19219C7.27888 5.6836 6.45429 5.6836 5.9457 6.19219C5.43711 6.70078 5.43711 7.52536 5.9457 8.03395L6.37757 8.46583C5.52951 9.47658 4.963 10.7024 4.74782 12.0189C4.5449 13.2605 4.66386 14.5251 5.08243 15.6951C5.34726 16.4354 6.23575 16.6554 6.91155 16.2536C7.58734 15.8517 7.78344 14.9759 7.61005 14.209C7.48252 13.645 7.46311 13.0575 7.55779 12.4782C7.72976 11.426 8.26714 10.4681 9.07547 9.77289C9.88379 9.07768 10.9113 8.68966 11.9774 8.67705C13.0435 8.66444 14.0799 9.02803 14.9045 9.70393C15.729 10.3798 16.2889 11.3247 16.4857 12.3726C16.6825 13.4204 16.5037 14.5041 15.9806 15.4331C15.4575 16.3622 14.6237 17.0771 13.6257 17.4521C13.0762 17.6587 12.4963 17.7549 11.9183 17.7405C11.1323 17.721 10.312 18.0851 10.0505 18.8266C9.78908 19.5681 10.1791 20.3962 10.957 20.5106C12.1865 20.6915 13.4498 20.56 14.6274 20.1174C16.2523 19.5066 17.6099 18.3427 18.4616 16.8301C19.3133 15.3174 19.6045 13.553 19.284 11.847C18.9636 10.1409 18.052 8.6024 16.7095 7.50193C15.7369 6.70473 14.5833 6.17436 13.3615 5.95039C14.0387 5.9041 14.5737 5.34009 14.5737 4.65114Z" fill="url(#paint1_linear_1_23)"/>
<path d="M10.7203 5.94681L10.7265 5.88511L10.7313 6.00784L10.7203 5.94681ZM8.38712 6.79184L8.41774 6.84577L8.37666 6.86909L8.34326 6.83569L8.38712 6.79184ZM7.78747 6.19219L7.74362 6.23604L7.74362 6.23604L7.78747 6.19219ZM5.9457 6.19219L5.98955 6.23604L5.98955 6.23604L5.9457 6.19219ZM5.9457 8.03395L5.90185 8.07781L5.90185 8.07781L5.9457 8.03395ZM6.37757 8.46583L6.42143 8.42198L6.46161 8.46216L6.42508 8.50569L6.37757 8.46583ZM4.74782 12.0189L4.68662 12.0089L4.68662 12.0089L4.74782 12.0189ZM5.08243 15.6951L5.14082 15.6743L5.14082 15.6743L5.08243 15.6951ZM7.61005 14.209L7.67053 14.1953L7.67053 14.1953L7.61005 14.209ZM7.55779 12.4782L7.61899 12.4882L7.61899 12.4882L7.55779 12.4782ZM9.07547 9.77289L9.11591 9.81991L9.11591 9.81991L9.07547 9.77289ZM14.9045 9.70393L14.9438 9.65596L14.9438 9.65596L14.9045 9.70393ZM16.4857 12.3726L16.4248 12.384L16.4248 12.384L16.4857 12.3726ZM15.9806 15.4331L16.0346 15.4636L16.0346 15.4636L15.9806 15.4331ZM13.6257 17.4521L13.6039 17.3941L13.6039 17.3941L13.6257 17.4521ZM11.9183 17.7405L11.9168 17.8025L11.9168 17.8025L11.9183 17.7405ZM10.957 20.5106L10.948 20.572L10.948 20.572L10.957 20.5106ZM14.6274 20.1174L14.6056 20.0593L14.6056 20.0593L14.6274 20.1174ZM18.4616 16.8301L18.5157 16.8605L18.4616 16.8301ZM19.284 11.847L19.2231 11.8584L19.2231 11.8584L19.284 11.847ZM16.7095 7.50193L16.6701 7.54989L16.6701 7.54989L16.7095 7.50193ZM13.3615 5.95039L13.3503 6.01139L13.3573 5.88852L13.3615 5.95039ZM13.2714 3.2868C14.0249 3.2868 14.6357 3.89764 14.6357 4.65114L14.5117 4.65114C14.5117 3.96614 13.9564 3.41083 13.2714 3.41083L13.2714 3.2868ZM10.8528 3.2868L13.2714 3.2868L13.2714 3.41083L10.8528 3.41083L10.8528 3.2868ZM9.48843 4.65114C9.48843 3.89764 10.0993 3.2868 10.8528 3.2868L10.8528 3.41083C10.1678 3.41083 9.61246 3.96614 9.61246 4.65114L9.48843 4.65114ZM10.714 6.00851C10.0257 5.93895 9.48843 5.35782 9.48843 4.65114L9.61246 4.65114C9.61246 5.2935 10.1008 5.82188 10.7265 5.88511L10.714 6.00851ZM8.3565 6.73791C9.08656 6.32338 9.88213 6.03506 10.7092 5.88578L10.7313 6.00784C9.91794 6.15464 9.13564 6.43815 8.41774 6.84577L8.3565 6.73791ZM8.34326 6.83569L7.74362 6.23604L7.83132 6.14834L8.43097 6.74799L8.34326 6.83569ZM7.74362 6.23604C7.25924 5.75167 6.47392 5.75167 5.98955 6.23604L5.90185 6.14834C6.43466 5.61553 7.29851 5.61553 7.83132 6.14834L7.74362 6.23604ZM5.98955 6.23604C5.50518 6.72041 5.50518 7.50573 5.98955 7.9901L5.90185 8.07781C5.36904 7.545 5.36904 6.68114 5.90185 6.14834L5.98955 6.23604ZM5.98955 7.9901L6.42143 8.42198L6.33372 8.50968L5.90185 8.07781L5.98955 7.9901ZM4.68662 12.0089C4.9036 10.6814 5.47488 9.44522 6.33007 8.42597L6.42508 8.50569C5.58415 9.50795 5.02239 10.7235 4.80903 12.029L4.68662 12.0089ZM5.02404 15.716C4.60196 14.5361 4.48199 13.2609 4.68662 12.0089L4.80903 12.029C4.60781 13.2601 4.72577 14.514 5.14082 15.6743L5.02404 15.716ZM6.94324 16.3069C6.24153 16.7241 5.30484 16.501 5.02404 15.716L5.14082 15.6743C5.38968 16.3699 6.22997 16.5867 6.87985 16.2003L6.94324 16.3069ZM7.67053 14.1953C7.84723 14.9768 7.65095 15.886 6.94324 16.3069L6.87985 16.2003C7.52373 15.8174 7.71966 14.975 7.54956 14.2227L7.67053 14.1953ZM7.61899 12.4882C7.5256 13.0596 7.54476 13.639 7.67053 14.1953L7.54956 14.2227C7.42029 13.651 7.40061 13.0554 7.49659 12.4682L7.61899 12.4882ZM9.11591 9.81991C8.31864 10.5056 7.78861 11.4504 7.61899 12.4882L7.49659 12.4682C7.67091 11.4016 8.21565 10.4306 9.03503 9.72588L9.11591 9.81991ZM11.9781 8.73906C10.9266 8.7515 9.91317 9.13421 9.11591 9.81991L9.03503 9.72588C9.85441 9.02115 10.896 8.62783 11.9767 8.61504L11.9781 8.73906ZM14.8651 9.75189C14.0519 9.08524 13.0296 8.72662 11.9781 8.73906L11.9767 8.61504C13.0573 8.60225 14.1079 8.97083 14.9438 9.65596L14.8651 9.75189ZM16.4248 12.384C16.2306 11.3505 15.6784 10.4185 14.8651 9.75189L14.9438 9.65596C15.7796 10.3411 16.3472 11.299 16.5467 12.3611L16.4248 12.384ZM15.9266 15.4027C16.4425 14.4864 16.6189 13.4175 16.4248 12.384L16.5467 12.3611C16.7462 13.4233 16.5649 14.5218 16.0346 15.4636L15.9266 15.4027ZM13.6039 17.3941C14.5882 17.0241 15.4106 16.319 15.9266 15.4027L16.0346 15.4636C15.5044 16.4053 14.6592 17.13 13.6475 17.5102L13.6039 17.3941ZM11.9198 17.6785C12.49 17.6927 13.0619 17.5978 13.6039 17.3941L13.6475 17.5102C13.0905 17.7195 12.5027 17.8171 11.9168 17.8025L11.9198 17.6785ZM9.99203 18.806C10.2658 18.0295 11.1189 17.6586 11.9198 17.6785L11.9168 17.8025C11.1457 17.7833 10.3581 18.1408 10.109 18.8473L9.99203 18.806ZM10.948 20.572C10.1232 20.4506 9.72057 19.576 9.99203 18.806L10.109 18.8473C9.85759 19.5603 10.2351 20.3417 10.966 20.4493L10.948 20.572ZM14.6492 20.1754C13.4617 20.6217 12.1878 20.7543 10.948 20.572L10.966 20.4493C12.1852 20.6286 13.4379 20.4982 14.6056 20.0593L14.6492 20.1754ZM18.5157 16.8605C17.6568 18.3858 16.2878 19.5596 14.6492 20.1754L14.6056 20.0593C16.2168 19.4537 17.5631 18.2995 18.4076 16.7996L18.5157 16.8605ZM19.345 11.8355C19.6681 13.5559 19.3745 15.3352 18.5157 16.8605L18.4076 16.7996C19.2521 15.2997 19.5409 13.5501 19.2231 11.8584L19.345 11.8355ZM16.7488 7.45397C18.1026 8.56369 19.0218 10.1151 19.345 11.8355L19.2231 11.8584C18.9053 10.1667 18.0014 8.64111 16.6701 7.54989L16.7488 7.45397ZM13.3727 5.8894C14.6048 6.11524 15.7681 6.65006 16.7488 7.45397L16.6701 7.54989C15.7058 6.75939 14.5619 6.23348 13.3503 6.01139L13.3727 5.8894ZM14.6357 4.65114C14.6357 5.37293 14.0753 5.96376 13.3658 6.01227L13.3573 5.88852C14.0022 5.84443 14.5117 5.30726 14.5117 4.65114L14.6357 4.65114Z" fill="white" fill-opacity="0.1" mask="url(#path-3-outside-1_1_23)"/>
<path d="M10.7203 5.94681L10.7265 5.88511L10.7313 6.00784L10.7203 5.94681ZM8.38712 6.79184L8.41774 6.84577L8.37666 6.86909L8.34326 6.83569L8.38712 6.79184ZM7.78747 6.19219L7.74362 6.23604L7.74362 6.23604L7.78747 6.19219ZM5.9457 6.19219L5.98955 6.23604L5.98955 6.23604L5.9457 6.19219ZM5.9457 8.03395L5.90185 8.07781L5.90185 8.07781L5.9457 8.03395ZM6.37757 8.46583L6.42143 8.42198L6.46161 8.46216L6.42508 8.50569L6.37757 8.46583ZM4.74782 12.0189L4.68662 12.0089L4.68662 12.0089L4.74782 12.0189ZM5.08243 15.6951L5.14082 15.6743L5.14082 15.6743L5.08243 15.6951ZM7.61005 14.209L7.67053 14.1953L7.67053 14.1953L7.61005 14.209ZM7.55779 12.4782L7.61899 12.4882L7.61899 12.4882L7.55779 12.4782ZM9.07547 9.77289L9.11591 9.81991L9.11591 9.81991L9.07547 9.77289ZM14.9045 9.70393L14.9438 9.65596L14.9438 9.65596L14.9045 9.70393ZM16.4857 12.3726L16.4248 12.384L16.4248 12.384L16.4857 12.3726ZM15.9806 15.4331L16.0346 15.4636L16.0346 15.4636L15.9806 15.4331ZM13.6257 17.4521L13.6039 17.3941L13.6039 17.3941L13.6257 17.4521ZM11.9183 17.7405L11.9168 17.8025L11.9168 17.8025L11.9183 17.7405ZM10.957 20.5106L10.948 20.572L10.948 20.572L10.957 20.5106ZM14.6274 20.1174L14.6056 20.0593L14.6056 20.0593L14.6274 20.1174ZM18.4616 16.8301L18.5157 16.8605L18.4616 16.8301ZM19.284 11.847L19.2231 11.8584L19.2231 11.8584L19.284 11.847ZM16.7095 7.50193L16.6701 7.54989L16.6701 7.54989L16.7095 7.50193ZM13.3615 5.95039L13.3503 6.01139L13.3573 5.88852L13.3615 5.95039ZM13.2714 3.2868C14.0249 3.2868 14.6357 3.89764 14.6357 4.65114L14.5117 4.65114C14.5117 3.96614 13.9564 3.41083 13.2714 3.41083L13.2714 3.2868ZM10.8528 3.2868L13.2714 3.2868L13.2714 3.41083L10.8528 3.41083L10.8528 3.2868ZM9.48843 4.65114C9.48843 3.89764 10.0993 3.2868 10.8528 3.2868L10.8528 3.41083C10.1678 3.41083 9.61246 3.96614 9.61246 4.65114L9.48843 4.65114ZM10.714 6.00851C10.0257 5.93895 9.48843 5.35782 9.48843 4.65114L9.61246 4.65114C9.61246 5.2935 10.1008 5.82188 10.7265 5.88511L10.714 6.00851ZM8.3565 6.73791C9.08656 6.32338 9.88213 6.03506 10.7092 5.88578L10.7313 6.00784C9.91794 6.15464 9.13564 6.43815 8.41774 6.84577L8.3565 6.73791ZM8.34326 6.83569L7.74362 6.23604L7.83132 6.14834L8.43097 6.74799L8.34326 6.83569ZM7.74362 6.23604C7.25924 5.75167 6.47392 5.75167 5.98955 6.23604L5.90185 6.14834C6.43466 5.61553 7.29851 5.61553 7.83132 6.14834L7.74362 6.23604ZM5.98955 6.23604C5.50518 6.72041 5.50518 7.50573 5.98955 7.9901L5.90185 8.07781C5.36904 7.545 5.36904 6.68114 5.90185 6.14834L5.98955 6.23604ZM5.98955 7.9901L6.42143 8.42198L6.33372 8.50968L5.90185 8.07781L5.98955 7.9901ZM4.68662 12.0089C4.9036 10.6814 5.47488 9.44522 6.33007 8.42597L6.42508 8.50569C5.58415 9.50795 5.02239 10.7235 4.80903 12.029L4.68662 12.0089ZM5.02404 15.716C4.60196 14.5361 4.48199 13.2609 4.68662 12.0089L4.80903 12.029C4.60781 13.2601 4.72577 14.514 5.14082 15.6743L5.02404 15.716ZM6.94324 16.3069C6.24153 16.7241 5.30484 16.501 5.02404 15.716L5.14082 15.6743C5.38968 16.3699 6.22997 16.5867 6.87985 16.2003L6.94324 16.3069ZM7.67053 14.1953C7.84723 14.9768 7.65095 15.886 6.94324 16.3069L6.87985 16.2003C7.52373 15.8174 7.71966 14.975 7.54956 14.2227L7.67053 14.1953ZM7.61899 12.4882C7.5256 13.0596 7.54476 13.639 7.67053 14.1953L7.54956 14.2227C7.42029 13.651 7.40061 13.0554 7.49659 12.4682L7.61899 12.4882ZM9.11591 9.81991C8.31864 10.5056 7.78861 11.4504 7.61899 12.4882L7.49659 12.4682C7.67091 11.4016 8.21565 10.4306 9.03503 9.72588L9.11591 9.81991ZM11.9781 8.73906C10.9266 8.7515 9.91317 9.13421 9.11591 9.81991L9.03503 9.72588C9.85441 9.02115 10.896 8.62783 11.9767 8.61504L11.9781 8.73906ZM14.8651 9.75189C14.0519 9.08524 13.0296 8.72662 11.9781 8.73906L11.9767 8.61504C13.0573 8.60225 14.1079 8.97083 14.9438 9.65596L14.8651 9.75189ZM16.4248 12.384C16.2306 11.3505 15.6784 10.4185 14.8651 9.75189L14.9438 9.65596C15.7796 10.3411 16.3472 11.299 16.5467 12.3611L16.4248 12.384ZM15.9266 15.4027C16.4425 14.4864 16.6189 13.4175 16.4248 12.384L16.5467 12.3611C16.7462 13.4233 16.5649 14.5218 16.0346 15.4636L15.9266 15.4027ZM13.6039 17.3941C14.5882 17.0241 15.4106 16.319 15.9266 15.4027L16.0346 15.4636C15.5044 16.4053 14.6592 17.13 13.6475 17.5102L13.6039 17.3941ZM11.9198 17.6785C12.49 17.6927 13.0619 17.5978 13.6039 17.3941L13.6475 17.5102C13.0905 17.7195 12.5027 17.8171 11.9168 17.8025L11.9198 17.6785ZM9.99203 18.806C10.2658 18.0295 11.1189 17.6586 11.9198 17.6785L11.9168 17.8025C11.1457 17.7833 10.3581 18.1408 10.109 18.8473L9.99203 18.806ZM10.948 20.572C10.1232 20.4506 9.72057 19.576 9.99203 18.806L10.109 18.8473C9.85759 19.5603 10.2351 20.3417 10.966 20.4493L10.948 20.572ZM14.6492 20.1754C13.4617 20.6217 12.1878 20.7543 10.948 20.572L10.966 20.4493C12.1852 20.6286 13.4379 20.4982 14.6056 20.0593L14.6492 20.1754ZM18.5157 16.8605C17.6568 18.3858 16.2878 19.5596 14.6492 20.1754L14.6056 20.0593C16.2168 19.4537 17.5631 18.2995 18.4076 16.7996L18.5157 16.8605ZM19.345 11.8355C19.6681 13.5559 19.3745 15.3352 18.5157 16.8605L18.4076 16.7996C19.2521 15.2997 19.5409 13.5501 19.2231 11.8584L19.345 11.8355ZM16.7488 7.45397C18.1026 8.56369 19.0218 10.1151 19.345 11.8355L19.2231 11.8584C18.9053 10.1667 18.0014 8.64111 16.6701 7.54989L16.7488 7.45397ZM13.3727 5.8894C14.6048 6.11524 15.7681 6.65006 16.7488 7.45397L16.6701 7.54989C15.7058 6.75939 14.5619 6.23348 13.3503 6.01139L13.3727 5.8894ZM14.6357 4.65114C14.6357 5.37293 14.0753 5.96376 13.3658 6.01227L13.3573 5.88852C14.0022 5.84443 14.5117 5.30726 14.5117 4.65114L14.6357 4.65114Z" fill="black" fill-opacity="0.1" mask="url(#path-3-outside-1_1_23)"/>
<g filter="url(#filter0_f_1_23)">
<ellipse cx="4.52713" cy="3.93798" rx="4.52713" ry="3.93798" transform="matrix(-1 8.74228e-08 8.74228e-08 1 15.7519 15.6899)" fill="url(#paint2_linear_1_23)"/>
</g>
</g>
<defs>
<filter id="filter0_f_1_23" x="4.5891" y="13.5814" width="13.2713" height="12.093" filterUnits="userSpaceOnUse" color-interpolation-filters="sRGB">
<feFlood flood-opacity="0" result="BackgroundImageFix"/>
<feBlend mode="normal" in="SourceGraphic" in2="BackgroundImageFix" result="shape"/>
<feGaussianBlur stdDeviation="1.05426" result="effect1_foregroundBlur_1_23"/>
</filter>
<linearGradient id="paint0_linear_1_23" x1="22.0155" y1="1.02326" x2="1.70543" y2="24.4031" gradientUnits="userSpaceOnUse">
<stop stop-color="#E52727"/>
<stop offset="1" stop-color="#9C2222"/>
</linearGradient>
<linearGradient id="paint1_linear_1_23" x1="7.11458" y1="7.5584" x2="12.031" y2="24.3101" gradientUnits="userSpaceOnUse">
<stop stop-color="white"/>
<stop offset="0.405" stop-color="white" stop-opacity="0.2"/>
<stop offset="0.65" stop-color="white" stop-opacity="0.07"/>
<stop offset="0.8" stop-color="white" stop-opacity="0"/>
</linearGradient>
<linearGradient id="paint2_linear_1_23" x1="5.6124" y1="2.85271" x2="1.17829" y2="8.18605" gradientUnits="userSpaceOnUse">
<stop stop-color="#BB2626"/>
<stop offset="1" stop-color="#A72222"/>
</linearGradient>
<clipPath id="clip0_1_23">
<rect width="24" height="24" fill="white"/>
</clipPath>
</defs>
</svg>
