<svg width="16" height="16" viewBox="0 0 16 16" fill="none" xmlns="http://www.w3.org/2000/svg">
<g clip-path="url(#clip0_1_2)">
<g filter="url(#filter0_i_1_2)">
<rect width="16" height="16" rx="3.22481" transform="matrix(-1 8.74228e-08 8.74228e-08 1 16 0)" fill="url(#paint0_linear_1_2)"/>
</g>
<rect x="-0.15" y="0.15" width="15.7" height="15.7" rx="3.07481" transform="matrix(-1 8.74228e-08 8.74228e-08 1 15.7 1.31134e-08)" stroke="white" stroke-opacity="0.27" stroke-width="0.3"/>
<mask id="path-3-outside-1_1_2" maskUnits="userSpaceOnUse" x="2.94061" y="1.23254" width="11" height="13" fill="black">
<rect fill="white" x="2.94061" y="1.23254" width="11" height="13"/>
<path fill-rule="evenodd" clip-rule="evenodd" d="M9.71582 3.10076C9.71582 2.62126 9.32711 2.23254 8.8476 2.23254L7.2352 2.23254C6.7557 2.23254 6.36698 2.62126 6.36698 3.10076C6.36698 3.55043 6.70882 3.92025 7.14681 3.96453C6.60001 4.06323 6.07407 4.25383 5.59143 4.52787L5.19168 4.12813C4.85262 3.78907 4.3029 3.78907 3.96384 4.12813C3.62478 4.46719 3.62478 5.01691 3.96384 5.35597L4.25173 5.64386C3.68635 6.3177 3.30866 7.13494 3.16521 8.01262C3.02993 8.84032 3.10924 9.68338 3.38829 10.4634C3.56484 10.957 4.15717 11.1036 4.6077 10.8357C5.05823 10.5678 5.18896 9.9839 5.07336 9.47265C4.98835 9.09666 4.9754 8.70501 5.03852 8.3188C5.15317 7.61733 5.51143 6.97873 6.05031 6.51525C6.58919 6.05178 7.27421 5.7931 7.98494 5.78469C8.69566 5.77628 9.38661 6.01868 9.9363 6.46927C10.486 6.91987 10.8593 7.54982 10.9905 8.24838C11.1217 8.94694 11.0025 9.66939 10.6537 10.2887C10.305 10.9081 9.74912 11.3847 9.08378 11.6348C8.71747 11.7724 8.33089 11.8366 7.94553 11.827C7.42153 11.814 6.87463 12.0567 6.70034 12.5511C6.52605 13.0454 6.78608 13.5975 7.30467 13.6737C8.1243 13.7943 8.96653 13.7066 9.75159 13.4116C10.8349 13.0044 11.74 12.2284 12.3077 11.22C12.8755 10.2116 13.0697 9.03534 12.856 7.89796C12.6424 6.76059 12.0346 5.73492 11.1396 5.00128C10.4913 4.46982 9.72226 4.11624 8.90773 3.96693C9.35918 3.93605 9.71582 3.56005 9.71582 3.10076Z"/>
</mask>
<path fill-rule="evenodd" clip-rule="evenodd" d="M9.71582 3.10076C9.71582 2.62126 9.32711 2.23254 8.8476 2.23254L7.2352 2.23254C6.7557 2.23254 6.36698 2.62126 6.36698 3.10076C6.36698 3.55043 6.70882 3.92025 7.14681 3.96453C6.60001 4.06323 6.07407 4.25383 5.59143 4.52787L5.19168 4.12813C4.85262 3.78907 4.3029 3.78907 3.96384 4.12813C3.62478 4.46719 3.62478 5.01691 3.96384 5.35597L4.25173 5.64386C3.68635 6.3177 3.30866 7.13494 3.16521 8.01262C3.02993 8.84032 3.10924 9.68338 3.38829 10.4634C3.56484 10.957 4.15717 11.1036 4.6077 10.8357C5.05823 10.5678 5.18896 9.9839 5.07336 9.47265C4.98835 9.09666 4.9754 8.70501 5.03852 8.3188C5.15317 7.61733 5.51143 6.97873 6.05031 6.51525C6.58919 6.05178 7.27421 5.7931 7.98494 5.78469C8.69566 5.77628 9.38661 6.01868 9.9363 6.46927C10.486 6.91987 10.8593 7.54982 10.9905 8.24838C11.1217 8.94694 11.0025 9.66939 10.6537 10.2887C10.305 10.9081 9.74912 11.3847 9.08378 11.6348C8.71747 11.7724 8.33089 11.8366 7.94553 11.827C7.42153 11.814 6.87463 12.0567 6.70034 12.5511C6.52605 13.0454 6.78608 13.5975 7.30467 13.6737C8.1243 13.7943 8.96653 13.7066 9.75159 13.4116C10.8349 13.0044 11.74 12.2284 12.3077 11.22C12.8755 10.2116 13.0697 9.03534 12.856 7.89796C12.6424 6.76059 12.0346 5.73492 11.1396 5.00128C10.4913 4.46982 9.72226 4.11624 8.90773 3.96693C9.35918 3.93605 9.71582 3.56005 9.71582 3.10076Z" fill="url(#paint1_linear_1_2)"/>
<path d="M8.8476 2.23254L8.8476 2.1912L8.8476 2.23254ZM7.2352 2.23254L7.2352 2.27389L7.2352 2.23254ZM7.14681 3.96453L7.15097 3.9234L7.15415 4.00522L7.14681 3.96453ZM5.59143 4.52787L5.61184 4.56382L5.58446 4.57937L5.56219 4.5571L5.59143 4.52787ZM5.19168 4.12813L5.22092 4.09889L5.22092 4.09889L5.19168 4.12813ZM3.96384 4.12813L3.99307 4.15736L3.99307 4.15736L3.96384 4.12813ZM3.96384 5.35597L3.93461 5.3852L3.93461 5.3852L3.96384 5.35597ZM4.25173 5.64386L4.28096 5.61463L4.30775 5.64141L4.2834 5.67043L4.25173 5.64386ZM3.16521 8.01262L3.20602 8.01929L3.20602 8.01929L3.16521 8.01262ZM3.38829 10.4634L3.42722 10.4495L3.42722 10.4495L3.38829 10.4634ZM4.6077 10.8357L4.58657 10.8002L4.58657 10.8002L4.6077 10.8357ZM5.07336 9.47265L5.11369 9.46353L5.11369 9.46353L5.07336 9.47265ZM5.03852 8.3188L5.07933 8.32547L5.07933 8.32547L5.03852 8.3188ZM10.9905 8.24838L10.9498 8.25601L10.9498 8.25601L10.9905 8.24838ZM10.6537 10.2887L10.6898 10.309L10.6898 10.309L10.6537 10.2887ZM9.08378 11.6348L9.06924 11.5961L9.06924 11.5961L9.08378 11.6348ZM7.94553 11.827L7.94656 11.7857L7.94656 11.7857L7.94553 11.827ZM6.70034 12.5511L6.66135 12.5373L6.66135 12.5373L6.70034 12.5511ZM7.30467 13.6737L7.31068 13.6328L7.31068 13.6328L7.30467 13.6737ZM9.75159 13.4116L9.73705 13.3729L9.73705 13.3729L9.75159 13.4116ZM12.3077 11.22L12.3438 11.2403L12.3438 11.2403L12.3077 11.22ZM12.856 7.89796L12.8154 7.90559L12.8154 7.90559L12.856 7.89796ZM11.1396 5.00128L11.1659 4.9693L11.1659 4.9693L11.1396 5.00128ZM8.90773 3.96693L8.90027 4.00759L8.9049 3.92568L8.90773 3.96693ZM8.8476 2.1912C9.34994 2.1912 9.75716 2.59842 9.75716 3.10076L9.67448 3.10076C9.67448 2.64409 9.30427 2.27389 8.8476 2.27389L8.8476 2.1912ZM7.2352 2.1912L8.8476 2.1912L8.8476 2.27389L7.2352 2.27389L7.2352 2.1912ZM6.32564 3.10076C6.32564 2.59842 6.73286 2.1912 7.2352 2.1912L7.2352 2.27389C6.77853 2.27389 6.40833 2.64409 6.40833 3.10076L6.32564 3.10076ZM7.14265 4.00567C6.68376 3.95927 6.32564 3.57186 6.32564 3.10076L6.40833 3.10076C6.40833 3.52899 6.73388 3.88123 7.15097 3.9234L7.14265 4.00567ZM5.57102 4.49192C6.05771 4.21558 6.58807 4.02337 7.13947 3.92385L7.15415 4.00522C6.61195 4.10309 6.09043 4.29209 5.61184 4.56382L5.57102 4.49192ZM5.56219 4.5571L5.16245 4.15736L5.22092 4.09889L5.62066 4.49864L5.56219 4.5571ZM5.16245 4.15736C4.83954 3.83445 4.31599 3.83445 3.99307 4.15736L3.93461 4.09889C4.28981 3.74369 4.86571 3.74369 5.22092 4.09889L5.16245 4.15736ZM3.99307 4.15736C3.67016 4.48027 3.67016 5.00382 3.99307 5.32674L3.93461 5.3852C3.5794 5.03 3.5794 4.4541 3.93461 4.09889L3.99307 4.15736ZM3.99307 5.32674L4.28096 5.61463L4.22249 5.67309L3.93461 5.3852L3.99307 5.32674ZM3.12441 8.00595C3.26907 7.12089 3.64993 6.29679 4.22006 5.61729L4.2834 5.67043C3.72277 6.33861 3.34826 7.14898 3.20602 8.01929L3.12441 8.00595ZM3.34936 10.4773C3.06797 9.69075 2.988 8.84061 3.12441 8.00595L3.20602 8.01929C3.07187 8.84003 3.15051 9.67601 3.42722 10.4495L3.34936 10.4773ZM4.62883 10.8712C4.16102 11.1494 3.53656 11.0006 3.34936 10.4773L3.42722 10.4495C3.59312 10.9133 4.15331 11.0578 4.58657 10.8002L4.62883 10.8712ZM5.11369 9.46353C5.23149 9.98451 5.10063 10.5907 4.62883 10.8712L4.58657 10.8002C5.01582 10.5449 5.14644 9.9833 5.03304 9.48176L5.11369 9.46353ZM5.07933 8.32547C5.01707 8.70639 5.02984 9.09268 5.11369 9.46353L5.03304 9.48176C4.94686 9.10063 4.93374 8.70362 4.99772 8.31213L5.07933 8.32547ZM6.07727 6.5466C5.54576 7.00373 5.19241 7.6336 5.07933 8.32547L4.99772 8.31213C5.11394 7.60106 5.4771 6.95372 6.02335 6.48391L6.07727 6.5466ZM7.98542 5.82603C7.28442 5.83433 6.60878 6.08946 6.07727 6.5466L6.02335 6.48391C6.56961 6.01409 7.264 5.75187 7.98445 5.74335L7.98542 5.82603ZM9.91009 6.50125C9.36792 6.05682 8.68643 5.81774 7.98542 5.82603L7.98445 5.74335C8.7049 5.73482 9.40529 5.98054 9.96251 6.4373L9.91009 6.50125ZM10.9498 8.25601C10.8204 7.56701 10.4523 6.94568 9.91009 6.50125L9.96251 6.4373C10.5197 6.89406 10.8981 7.53263 11.0311 8.24074L10.9498 8.25601ZM10.6177 10.2685C10.9617 9.65758 11.0793 8.94501 10.9498 8.25601L11.0311 8.24074C11.1641 8.94886 11.0433 9.6812 10.6898 10.309L10.6177 10.2685ZM9.06924 11.5961C9.72547 11.3494 10.2738 10.8793 10.6177 10.2685L10.6898 10.309C10.3363 10.9369 9.77277 11.42 9.09833 11.6735L9.06924 11.5961ZM7.94656 11.7857C8.32665 11.7951 8.70794 11.7318 9.06924 11.5961L9.09833 11.6735C8.72701 11.813 8.33514 11.8781 7.94451 11.8683L7.94656 11.7857ZM6.66135 12.5373C6.84387 12.0196 7.4126 11.7724 7.94656 11.7857L7.94451 11.8683C7.43046 11.8556 6.90539 12.0938 6.73933 12.5648L6.66135 12.5373ZM7.29865 13.7146C6.74879 13.6338 6.48038 13.0506 6.66135 12.5373L6.73933 12.5648C6.57173 13.0402 6.82338 13.5612 7.31068 13.6328L7.29865 13.7146ZM9.76614 13.4503C8.97448 13.7478 8.12517 13.8362 7.29865 13.7146L7.31068 13.6328C8.12343 13.7524 8.95858 13.6655 9.73705 13.3729L9.76614 13.4503ZM12.3438 11.2403C11.7712 12.2572 10.8585 13.0397 9.76614 13.4503L9.73705 13.3729C10.8112 12.9691 11.7087 12.1997 12.2717 11.1997L12.3438 11.2403ZM12.8967 7.89033C13.1121 9.03726 12.9163 10.2234 12.3438 11.2403L12.2717 11.1997C12.8347 10.1998 13.0272 9.03341 12.8154 7.90559L12.8967 7.89033ZM11.1659 4.9693C12.0684 5.70911 12.6812 6.7434 12.8967 7.89033L12.8154 7.90559C12.6035 6.77778 12.0009 5.76073 11.1134 5.03325L11.1659 4.9693ZM8.91518 3.92626C9.73656 4.07683 10.5121 4.43338 11.1659 4.9693L11.1134 5.03325C10.4705 4.50626 9.70796 4.15565 8.90027 4.00759L8.91518 3.92626ZM9.75716 3.10076C9.75716 3.58194 9.38354 3.97582 8.91055 4.00818L8.9049 3.92568C9.33482 3.89628 9.67448 3.53817 9.67448 3.10076L9.75716 3.10076Z" fill="white" fill-opacity="0.1" mask="url(#path-3-outside-1_1_2)"/>
<path d="M8.8476 2.23254L8.8476 2.1912L8.8476 2.23254ZM7.2352 2.23254L7.2352 2.27389L7.2352 2.23254ZM7.14681 3.96453L7.15097 3.9234L7.15415 4.00522L7.14681 3.96453ZM5.59143 4.52787L5.61184 4.56382L5.58446 4.57937L5.56219 4.5571L5.59143 4.52787ZM5.19168 4.12813L5.22092 4.09889L5.22092 4.09889L5.19168 4.12813ZM3.96384 4.12813L3.99307 4.15736L3.99307 4.15736L3.96384 4.12813ZM3.96384 5.35597L3.93461 5.3852L3.93461 5.3852L3.96384 5.35597ZM4.25173 5.64386L4.28096 5.61463L4.30775 5.64141L4.2834 5.67043L4.25173 5.64386ZM3.16521 8.01262L3.20602 8.01929L3.20602 8.01929L3.16521 8.01262ZM3.38829 10.4634L3.42722 10.4495L3.42722 10.4495L3.38829 10.4634ZM4.6077 10.8357L4.58657 10.8002L4.58657 10.8002L4.6077 10.8357ZM5.07336 9.47265L5.11369 9.46353L5.11369 9.46353L5.07336 9.47265ZM5.03852 8.3188L5.07933 8.32547L5.07933 8.32547L5.03852 8.3188ZM10.9905 8.24838L10.9498 8.25601L10.9498 8.25601L10.9905 8.24838ZM10.6537 10.2887L10.6898 10.309L10.6898 10.309L10.6537 10.2887ZM9.08378 11.6348L9.06924 11.5961L9.06924 11.5961L9.08378 11.6348ZM7.94553 11.827L7.94656 11.7857L7.94656 11.7857L7.94553 11.827ZM6.70034 12.5511L6.66135 12.5373L6.66135 12.5373L6.70034 12.5511ZM7.30467 13.6737L7.31068 13.6328L7.31068 13.6328L7.30467 13.6737ZM9.75159 13.4116L9.73705 13.3729L9.73705 13.3729L9.75159 13.4116ZM12.3077 11.22L12.3438 11.2403L12.3438 11.2403L12.3077 11.22ZM12.856 7.89796L12.8154 7.90559L12.8154 7.90559L12.856 7.89796ZM11.1396 5.00128L11.1659 4.9693L11.1659 4.9693L11.1396 5.00128ZM8.90773 3.96693L8.90027 4.00759L8.9049 3.92568L8.90773 3.96693ZM8.8476 2.1912C9.34994 2.1912 9.75716 2.59842 9.75716 3.10076L9.67448 3.10076C9.67448 2.64409 9.30427 2.27389 8.8476 2.27389L8.8476 2.1912ZM7.2352 2.1912L8.8476 2.1912L8.8476 2.27389L7.2352 2.27389L7.2352 2.1912ZM6.32564 3.10076C6.32564 2.59842 6.73286 2.1912 7.2352 2.1912L7.2352 2.27389C6.77853 2.27389 6.40833 2.64409 6.40833 3.10076L6.32564 3.10076ZM7.14265 4.00567C6.68376 3.95927 6.32564 3.57186 6.32564 3.10076L6.40833 3.10076C6.40833 3.52899 6.73388 3.88123 7.15097 3.9234L7.14265 4.00567ZM5.57102 4.49192C6.05771 4.21558 6.58807 4.02337 7.13947 3.92385L7.15415 4.00522C6.61195 4.10309 6.09043 4.29209 5.61184 4.56382L5.57102 4.49192ZM5.56219 4.5571L5.16245 4.15736L5.22092 4.09889L5.62066 4.49864L5.56219 4.5571ZM5.16245 4.15736C4.83954 3.83445 4.31599 3.83445 3.99307 4.15736L3.93461 4.09889C4.28981 3.74369 4.86571 3.74369 5.22092 4.09889L5.16245 4.15736ZM3.99307 4.15736C3.67016 4.48027 3.67016 5.00382 3.99307 5.32674L3.93461 5.3852C3.5794 5.03 3.5794 4.4541 3.93461 4.09889L3.99307 4.15736ZM3.99307 5.32674L4.28096 5.61463L4.22249 5.67309L3.93461 5.3852L3.99307 5.32674ZM3.12441 8.00595C3.26907 7.12089 3.64993 6.29679 4.22006 5.61729L4.2834 5.67043C3.72277 6.33861 3.34826 7.14898 3.20602 8.01929L3.12441 8.00595ZM3.34936 10.4773C3.06797 9.69075 2.988 8.84061 3.12441 8.00595L3.20602 8.01929C3.07187 8.84003 3.15051 9.67601 3.42722 10.4495L3.34936 10.4773ZM4.62883 10.8712C4.16102 11.1494 3.53656 11.0006 3.34936 10.4773L3.42722 10.4495C3.59312 10.9133 4.15331 11.0578 4.58657 10.8002L4.62883 10.8712ZM5.11369 9.46353C5.23149 9.98451 5.10063 10.5907 4.62883 10.8712L4.58657 10.8002C5.01582 10.5449 5.14644 9.9833 5.03304 9.48176L5.11369 9.46353ZM5.07933 8.32547C5.01707 8.70639 5.02984 9.09268 5.11369 9.46353L5.03304 9.48176C4.94686 9.10063 4.93374 8.70362 4.99772 8.31213L5.07933 8.32547ZM6.07727 6.5466C5.54576 7.00373 5.19241 7.6336 5.07933 8.32547L4.99772 8.31213C5.11394 7.60106 5.4771 6.95372 6.02335 6.48391L6.07727 6.5466ZM7.98542 5.82603C7.28442 5.83433 6.60878 6.08946 6.07727 6.5466L6.02335 6.48391C6.56961 6.01409 7.264 5.75187 7.98445 5.74335L7.98542 5.82603ZM9.91009 6.50125C9.36792 6.05682 8.68643 5.81774 7.98542 5.82603L7.98445 5.74335C8.7049 5.73482 9.40529 5.98054 9.96251 6.4373L9.91009 6.50125ZM10.9498 8.25601C10.8204 7.56701 10.4523 6.94568 9.91009 6.50125L9.96251 6.4373C10.5197 6.89406 10.8981 7.53263 11.0311 8.24074L10.9498 8.25601ZM10.6177 10.2685C10.9617 9.65758 11.0793 8.94501 10.9498 8.25601L11.0311 8.24074C11.1641 8.94886 11.0433 9.6812 10.6898 10.309L10.6177 10.2685ZM9.06924 11.5961C9.72547 11.3494 10.2738 10.8793 10.6177 10.2685L10.6898 10.309C10.3363 10.9369 9.77277 11.42 9.09833 11.6735L9.06924 11.5961ZM7.94656 11.7857C8.32665 11.7951 8.70794 11.7318 9.06924 11.5961L9.09833 11.6735C8.72701 11.813 8.33514 11.8781 7.94451 11.8683L7.94656 11.7857ZM6.66135 12.5373C6.84387 12.0196 7.4126 11.7724 7.94656 11.7857L7.94451 11.8683C7.43046 11.8556 6.90539 12.0938 6.73933 12.5648L6.66135 12.5373ZM7.29865 13.7146C6.74879 13.6338 6.48038 13.0506 6.66135 12.5373L6.73933 12.5648C6.57173 13.0402 6.82338 13.5612 7.31068 13.6328L7.29865 13.7146ZM9.76614 13.4503C8.97448 13.7478 8.12517 13.8362 7.29865 13.7146L7.31068 13.6328C8.12343 13.7524 8.95858 13.6655 9.73705 13.3729L9.76614 13.4503ZM12.3438 11.2403C11.7712 12.2572 10.8585 13.0397 9.76614 13.4503L9.73705 13.3729C10.8112 12.9691 11.7087 12.1997 12.2717 11.1997L12.3438 11.2403ZM12.8967 7.89033C13.1121 9.03726 12.9163 10.2234 12.3438 11.2403L12.2717 11.1997C12.8347 10.1998 13.0272 9.03341 12.8154 7.90559L12.8967 7.89033ZM11.1659 4.9693C12.0684 5.70911 12.6812 6.7434 12.8967 7.89033L12.8154 7.90559C12.6035 6.77778 12.0009 5.76073 11.1134 5.03325L11.1659 4.9693ZM8.91518 3.92626C9.73656 4.07683 10.5121 4.43338 11.1659 4.9693L11.1134 5.03325C10.4705 4.50626 9.70796 4.15565 8.90027 4.00759L8.91518 3.92626ZM9.75716 3.10076C9.75716 3.58194 9.38354 3.97582 8.91055 4.00818L8.9049 3.92568C9.33482 3.89628 9.67448 3.53817 9.67448 3.10076L9.75716 3.10076Z" fill="black" fill-opacity="0.1" mask="url(#path-3-outside-1_1_2)"/>
<g filter="url(#filter1_f_1_2)">
<ellipse cx="3.01809" cy="2.62532" rx="3.01809" ry="2.62532" transform="matrix(-1 8.74228e-08 8.74228e-08 1 10.5013 10.46)" fill="url(#paint2_linear_1_2)"/>
</g>
</g>
<defs>
<filter id="filter0_i_1_2" x="0" y="0" width="16" height="16" filterUnits="userSpaceOnUse" color-interpolation-filters="sRGB">
<feFlood flood-opacity="0" result="BackgroundImageFix"/>
<feBlend mode="normal" in="SourceGraphic" in2="BackgroundImageFix" result="shape"/>
<feColorMatrix in="SourceAlpha" type="matrix" values="0 0 0 0 0 0 0 0 0 0 0 0 0 0 0 0 0 0 127 0" result="hardAlpha"/>
<feMorphology radius="0.1" operator="erode" in="SourceAlpha" result="effect1_innerShadow_1_2"/>
<feOffset/>
<feComposite in2="hardAlpha" operator="arithmetic" k2="-1" k3="1"/>
<feColorMatrix type="matrix" values="0 0 0 0 0 0 0 0 0 0 0 0 0 0 0 0 0 0 1 0"/>
<feBlend mode="normal" in2="shape" result="effect1_innerShadow_1_2"/>
</filter>
<filter id="filter1_f_1_2" x="3.0594" y="9.05428" width="8.84756" height="8.06201" filterUnits="userSpaceOnUse" color-interpolation-filters="sRGB">
<feFlood flood-opacity="0" result="BackgroundImageFix"/>
<feBlend mode="normal" in="SourceGraphic" in2="BackgroundImageFix" result="shape"/>
<feGaussianBlur stdDeviation="0.702842" result="effect1_foregroundBlur_1_2"/>
</filter>
<linearGradient id="paint0_linear_1_2" x1="14.677" y1="0.682171" x2="1.13695" y2="16.2687" gradientUnits="userSpaceOnUse">
<stop stop-color="#E52727"/>
<stop offset="1" stop-color="#9C2222"/>
</linearGradient>
<linearGradient id="paint1_linear_1_2" x1="4.74307" y1="5.03893" x2="8.02072" y2="16.2067" gradientUnits="userSpaceOnUse">
<stop stop-color="white"/>
<stop offset="0.405" stop-color="white" stop-opacity="0.2"/>
<stop offset="0.65" stop-color="white" stop-opacity="0.07"/>
<stop offset="0.8" stop-color="white" stop-opacity="0"/>
</linearGradient>
<linearGradient id="paint2_linear_1_2" x1="3.7416" y1="1.90181" x2="0.785529" y2="5.45736" gradientUnits="userSpaceOnUse">
<stop stop-color="#BB2626"/>
<stop offset="1" stop-color="#A72222"/>
</linearGradient>
<clipPath id="clip0_1_2">
<rect width="16" height="16" fill="white"/>
</clipPath>
</defs>
</svg>
