<svg width="128" height="128" viewBox="0 0 128 128" fill="none" xmlns="http://www.w3.org/2000/svg">
<path opacity="0.2" d="M119 118.002C119 119.593 113.205 121.119 102.891 122.245C92.5764 123.37 78.5869 124.002 64 124.002C49.4131 124.002 35.4236 123.37 25.1091 122.245C14.7946 121.119 9 119.593 9 118.002C9 116.411 14.7946 114.885 25.1091 113.759C35.4236 112.634 49.4131 112.002 64 112.002C78.5869 112.002 92.5764 112.634 102.891 113.759C113.205 114.885 119 116.411 119 118.002Z" fill="url(#paint0_radial_7_2)"/>
<g opacity="0.4">
<path d="M103.79 116.002H118V121.002H103.79V116.002Z" fill="url(#paint1_radial_7_2)"/>
<path d="M24.211 121.002H10.0005V116.002H24.211V121.002Z" fill="url(#paint2_radial_7_2)"/>
<path d="M24.211 116.002H103.79V121.002H24.211V116.002Z" fill="url(#paint3_linear_7_2)"/>
</g>
<path opacity="0.9" d="M109.445 15.502H18.555C15.2109 15.502 12.5 18.2129 12.5 21.557V112.447C12.5 115.791 15.2109 118.502 18.555 118.502H109.445C112.789 118.502 115.5 115.791 115.5 112.447V21.557C115.5 18.2129 112.789 15.502 109.445 15.502Z" fill="url(#paint4_radial_7_2)"/>
<path opacity="0.3" d="M109.5 16.502H18.5C15.7386 16.502 13.5 18.7406 13.5 21.502V112.502C13.5 115.263 15.7386 117.502 18.5 117.502H109.5C112.261 117.502 114.5 115.263 114.5 112.502V21.502C114.5 18.7406 112.261 16.502 109.5 16.502Z" stroke="url(#paint5_linear_7_2)" stroke-linecap="round" stroke-linejoin="round"/>
<path opacity="0.7" d="M109.445 15.502H18.555C15.2109 15.502 12.5 18.2129 12.5 21.557V112.447C12.5 115.791 15.2109 118.502 18.555 118.502H109.445C112.789 118.502 115.5 115.791 115.5 112.447V21.557C115.5 18.2129 112.789 15.502 109.445 15.502Z" stroke="#860B0B" stroke-linecap="round" stroke-linejoin="round"/>
<mask id="path-8-outside-1_7_2" maskUnits="userSpaceOnUse" x="33.1075" y="30.2853" width="62" height="72" fill="black">
<rect fill="white" x="33.1075" y="30.2853" width="62" height="72"/>
<path fill-rule="evenodd" clip-rule="evenodd" d="M53.9483 36.627C53.9483 33.6768 56.3399 31.2852 59.2901 31.2852H69.2105C72.1607 31.2852 74.5523 33.6768 74.5523 36.627C74.5523 39.3935 72.4492 41.6688 69.7546 41.9414C73.1187 42.5487 76.3544 43.7213 79.3237 45.4073L81.7831 42.9479C83.8691 40.8618 87.2514 40.8618 89.3374 42.9479C91.4235 45.034 91.4235 48.4162 89.3374 50.5023L87.5663 52.2735C91.0448 56.4193 93.3686 61.4474 94.2512 66.8474C95.0835 71.9399 94.5955 77.1269 92.8787 81.9261C91.7924 84.9626 88.1481 85.8649 85.3762 84.2167C82.6043 82.5684 81.7999 78.9759 82.5111 75.8303C83.0342 73.517 83.1138 71.1074 82.7255 68.7312C82.0201 64.4154 79.8159 60.4863 76.5004 57.6348C73.1849 54.7832 68.9703 53.1917 64.5975 53.1399C60.2247 53.0882 55.9736 54.5796 52.5916 57.3519C49.2095 60.1242 46.913 64 46.1057 68.2979C45.2984 72.5959 46.032 77.0408 48.1775 80.8514C50.3231 84.662 53.7432 87.5943 57.8368 89.1328C60.0905 89.9799 62.469 90.3746 64.8399 90.3157C68.0639 90.2355 71.4287 91.7291 72.501 94.7706C73.5734 97.812 71.9735 101.208 68.7829 101.678C63.74 102.42 58.5582 101.88 53.728 100.065C47.0631 97.5598 41.4945 92.7855 38.0012 86.5812C34.5078 80.3769 33.3134 73.1398 34.6278 66.142C35.9423 59.1442 39.6814 52.8337 45.188 48.3199C49.1769 45.0502 53.9082 42.8748 58.9196 41.9561C56.1422 41.7658 53.9483 39.4526 53.9483 36.627Z"/>
</mask>
<path fill-rule="evenodd" clip-rule="evenodd" d="M53.9483 36.627C53.9483 33.6768 56.3399 31.2852 59.2901 31.2852H69.2105C72.1607 31.2852 74.5523 33.6768 74.5523 36.627C74.5523 39.3935 72.4492 41.6688 69.7546 41.9414C73.1187 42.5487 76.3544 43.7213 79.3237 45.4073L81.7831 42.9479C83.8691 40.8618 87.2514 40.8618 89.3374 42.9479C91.4235 45.034 91.4235 48.4162 89.3374 50.5023L87.5663 52.2735C91.0448 56.4193 93.3686 61.4474 94.2512 66.8474C95.0835 71.9399 94.5955 77.1269 92.8787 81.9261C91.7924 84.9626 88.1481 85.8649 85.3762 84.2167C82.6043 82.5684 81.7999 78.9759 82.5111 75.8303C83.0342 73.517 83.1138 71.1074 82.7255 68.7312C82.0201 64.4154 79.8159 60.4863 76.5004 57.6348C73.1849 54.7832 68.9703 53.1917 64.5975 53.1399C60.2247 53.0882 55.9736 54.5796 52.5916 57.3519C49.2095 60.1242 46.913 64 46.1057 68.2979C45.2984 72.5959 46.032 77.0408 48.1775 80.8514C50.3231 84.662 53.7432 87.5943 57.8368 89.1328C60.0905 89.9799 62.469 90.3746 64.8399 90.3157C68.0639 90.2355 71.4287 91.7291 72.501 94.7706C73.5734 97.812 71.9735 101.208 68.7829 101.678C63.74 102.42 58.5582 101.88 53.728 100.065C47.0631 97.5598 41.4945 92.7855 38.0012 86.5812C34.5078 80.3769 33.3134 73.1398 34.6278 66.142C35.9423 59.1442 39.6814 52.8337 45.188 48.3199C49.1769 45.0502 53.9082 42.8748 58.9196 41.9561C56.1422 41.7658 53.9483 39.4526 53.9483 36.627Z" fill="url(#paint6_linear_7_2)"/>
<path d="M69.7546 41.9414L69.729 41.6883L69.7095 42.1917L69.7546 41.9414ZM79.3237 45.4073L79.1981 45.6285L79.3666 45.7241L79.5035 45.5871L79.3237 45.4073ZM81.7831 42.9479L81.9629 43.1278L81.9629 43.1278L81.7831 42.9479ZM89.3374 42.9479L89.1576 43.1278L89.1576 43.1278L89.3374 42.9479ZM89.3374 50.5023L89.1576 50.3224L89.1576 50.3224L89.3374 50.5023ZM87.5663 52.2735L87.3864 52.0936L87.2216 52.2584L87.3714 52.437L87.5663 52.2735ZM94.2512 66.8474L94.0001 66.8885L94.0001 66.8885L94.2512 66.8474ZM92.8787 81.9261L93.1182 82.0118L93.1182 82.0118L92.8787 81.9261ZM85.3762 84.2167L85.5062 83.998L85.5062 83.998L85.3762 84.2167ZM82.5111 75.8303L82.7593 75.8864L82.7593 75.8864L82.5111 75.8303ZM82.7255 68.7312L82.4744 68.7722L82.4744 68.7722L82.7255 68.7312ZM76.5004 57.6348L76.3345 57.8276L76.3345 57.8276L76.5004 57.6348ZM64.5975 53.1399L64.5945 53.3943L64.5945 53.3943L64.5975 53.1399ZM52.5916 57.3519L52.4303 57.1552L52.4303 57.1552L52.5916 57.3519ZM46.1057 68.2979L45.8557 68.251L45.8557 68.251L46.1057 68.2979ZM57.8368 89.1328L57.7473 89.371L57.7473 89.371L57.8368 89.1328ZM64.8399 90.3157L64.8336 90.0614L64.8336 90.0614L64.8399 90.3157ZM72.501 94.7706L72.7409 94.686L72.7409 94.686L72.501 94.7706ZM68.7829 101.678L68.7459 101.426L68.7459 101.426L68.7829 101.678ZM53.728 100.065L53.6385 100.303L53.6385 100.303L53.728 100.065ZM38.0012 86.5812L38.2228 86.4564L38.2228 86.4564L38.0012 86.5812ZM34.6278 66.142L34.3778 66.095L34.3778 66.095L34.6278 66.142ZM45.188 48.3199L45.3492 48.5167L45.3492 48.5167L45.188 48.3199ZM58.9196 41.9561L58.9654 42.2063L58.937 41.7023L58.9196 41.9561ZM59.2901 31.0309C56.1994 31.0309 53.694 33.5364 53.694 36.627H54.2027C54.2027 33.8173 56.4804 31.5396 59.2901 31.5396V31.0309ZM69.2105 31.0309H59.2901V31.5396H69.2105V31.0309ZM74.8066 36.627C74.8066 33.5364 72.3012 31.0309 69.2105 31.0309V31.5396C72.0202 31.5396 74.2979 33.8173 74.2979 36.627H74.8066ZM69.7802 42.1945C72.6034 41.9089 74.8066 39.5254 74.8066 36.627H74.2979C74.2979 39.2616 72.295 41.4287 69.729 41.6883L69.7802 42.1945ZM79.4493 45.1861C76.455 43.4859 73.1921 42.3034 69.7998 41.6911L69.7095 42.1917C73.0452 42.7939 76.2537 43.9567 79.1981 45.6285L79.4493 45.1861ZM79.5035 45.5871L81.9629 43.1278L81.6032 42.768L79.1438 45.2274L79.5035 45.5871ZM81.9629 43.1278C83.9497 41.141 87.1708 41.141 89.1576 43.1278L89.5173 42.768C87.3319 40.5826 83.7886 40.5826 81.6032 42.768L81.9629 43.1278ZM89.1576 43.1278C91.1443 45.1145 91.1443 48.3357 89.1576 50.3224L89.5173 50.6821C91.7027 48.4967 91.7027 44.9534 89.5173 42.768L89.1576 43.1278ZM89.1576 50.3224L87.3864 52.0936L87.7461 52.4533L89.5173 50.6821L89.1576 50.3224ZM94.5022 66.8064C93.6122 61.361 91.2689 56.2906 87.7611 52.11L87.3714 52.437C90.8207 56.548 93.1249 61.5338 94.0001 66.8885L94.5022 66.8064ZM93.1182 82.0118C94.8495 77.1722 95.3415 71.9417 94.5022 66.8064L94.0001 66.8885C94.8254 71.9381 94.3416 77.0815 92.6392 81.8405L93.1182 82.0118ZM85.2462 84.4353C88.1244 86.1468 91.9664 85.2315 93.1182 82.0118L92.6392 81.8405C91.6184 84.6938 88.1718 85.5831 85.5062 83.998L85.2462 84.4353ZM82.263 75.7742C81.5383 78.9796 82.3434 82.7092 85.2462 84.4353L85.5062 83.998C82.8652 82.4276 82.0615 78.9722 82.7593 75.8864L82.263 75.7742ZM82.4744 68.7722C82.8575 71.1159 82.7789 73.4926 82.263 75.7742L82.7593 75.8864C83.2895 73.5415 83.3702 71.0989 82.9765 68.6902L82.4744 68.7722ZM76.3345 57.8276C79.6047 60.6402 81.7787 64.5155 82.4744 68.7722L82.9765 68.6902C82.2615 64.3153 80.0271 60.3325 76.6663 57.4419L76.3345 57.8276ZM64.5945 53.3943C68.9075 53.4453 73.0644 55.0151 76.3345 57.8276L76.6663 57.4419C73.3054 54.5514 69.0331 52.938 64.6005 52.8856L64.5945 53.3943ZM52.7528 57.5486C56.0886 54.8142 60.2815 53.3433 64.5945 53.3943L64.6005 52.8856C60.1679 52.8331 55.8586 54.3449 52.4303 57.1552L52.7528 57.5486ZM46.3557 68.3449C47.1519 64.1058 49.4171 60.283 52.7528 57.5486L52.4303 57.1552C49.002 59.9654 46.674 63.8942 45.8557 68.251L46.3557 68.3449ZM48.3992 80.7266C46.283 76.9682 45.5594 72.584 46.3557 68.3449L45.8557 68.251C45.0373 72.6077 45.781 77.1135 47.9559 80.9762L48.3992 80.7266ZM57.9263 88.8947C53.8887 87.3773 50.5154 84.4851 48.3992 80.7266L47.9559 80.9762C50.1308 84.839 53.5978 87.8114 57.7473 89.371L57.9263 88.8947ZM64.8336 90.0614C62.4951 90.1195 60.1492 89.7302 57.9263 88.8947L57.7473 89.371C60.0319 90.2296 62.4429 90.6297 64.8463 90.57L64.8336 90.0614ZM72.7409 94.686C71.618 91.5009 68.1188 89.9797 64.8336 90.0614L64.8463 90.57C68.0089 90.4913 71.2395 91.9573 72.2611 94.8552L72.7409 94.686ZM68.8199 101.929C72.203 101.432 73.8544 97.8441 72.7409 94.686L72.2611 94.8552C73.2924 97.78 71.7441 100.985 68.7459 101.426L68.8199 101.929ZM53.6385 100.303C58.5093 102.134 63.7347 102.677 68.8199 101.929L68.7459 101.426C63.7454 102.162 58.6071 101.627 53.8175 99.8267L53.6385 100.303ZM37.7795 86.706C41.3022 92.9625 46.9176 97.7769 53.6385 100.303L53.8175 99.8267C47.2086 97.3428 41.6868 92.6086 38.2228 86.4564L37.7795 86.706ZM34.3778 66.095C33.0524 73.1516 34.2568 80.4496 37.7795 86.706L38.2228 86.4564C34.7588 80.3043 33.5744 73.1279 34.8778 66.1889L34.3778 66.095ZM45.0267 48.1232C39.4739 52.675 35.7033 59.0384 34.3778 66.095L34.8778 66.1889C36.1812 59.25 39.8889 52.9925 45.3492 48.5167L45.0267 48.1232ZM58.8737 41.7059C53.8203 42.6323 49.0491 44.826 45.0267 48.1232L45.3492 48.5167C49.3046 45.2744 53.9962 43.1173 58.9654 42.2063L58.8737 41.7059ZM53.694 36.627C53.694 39.5873 55.9924 42.0105 58.9022 42.2099L58.937 41.7023C56.2921 41.5211 54.2027 39.318 54.2027 36.627H53.694Z" fill="white" fill-opacity="0.1" mask="url(#path-8-outside-1_7_2)"/>
<path d="M69.7546 41.9414L69.729 41.6883L69.7095 42.1917L69.7546 41.9414ZM79.3237 45.4073L79.1981 45.6285L79.3666 45.7241L79.5035 45.5871L79.3237 45.4073ZM81.7831 42.9479L81.9629 43.1278L81.9629 43.1278L81.7831 42.9479ZM89.3374 42.9479L89.1576 43.1278L89.1576 43.1278L89.3374 42.9479ZM89.3374 50.5023L89.1576 50.3224L89.1576 50.3224L89.3374 50.5023ZM87.5663 52.2735L87.3864 52.0936L87.2216 52.2584L87.3714 52.437L87.5663 52.2735ZM94.2512 66.8474L94.0001 66.8885L94.0001 66.8885L94.2512 66.8474ZM92.8787 81.9261L93.1182 82.0118L93.1182 82.0118L92.8787 81.9261ZM85.3762 84.2167L85.5062 83.998L85.5062 83.998L85.3762 84.2167ZM82.5111 75.8303L82.7593 75.8864L82.7593 75.8864L82.5111 75.8303ZM82.7255 68.7312L82.4744 68.7722L82.4744 68.7722L82.7255 68.7312ZM76.5004 57.6348L76.3345 57.8276L76.3345 57.8276L76.5004 57.6348ZM64.5975 53.1399L64.5945 53.3943L64.5945 53.3943L64.5975 53.1399ZM52.5916 57.3519L52.4303 57.1552L52.4303 57.1552L52.5916 57.3519ZM46.1057 68.2979L45.8557 68.251L45.8557 68.251L46.1057 68.2979ZM57.8368 89.1328L57.7473 89.371L57.7473 89.371L57.8368 89.1328ZM64.8399 90.3157L64.8336 90.0614L64.8336 90.0614L64.8399 90.3157ZM72.501 94.7706L72.7409 94.686L72.7409 94.686L72.501 94.7706ZM68.7829 101.678L68.7459 101.426L68.7459 101.426L68.7829 101.678ZM53.728 100.065L53.6385 100.303L53.6385 100.303L53.728 100.065ZM38.0012 86.5812L38.2228 86.4564L38.2228 86.4564L38.0012 86.5812ZM34.6278 66.142L34.3778 66.095L34.3778 66.095L34.6278 66.142ZM45.188 48.3199L45.3492 48.5167L45.3492 48.5167L45.188 48.3199ZM58.9196 41.9561L58.9654 42.2063L58.937 41.7023L58.9196 41.9561ZM59.2901 31.0309C56.1994 31.0309 53.694 33.5364 53.694 36.627H54.2027C54.2027 33.8173 56.4804 31.5396 59.2901 31.5396V31.0309ZM69.2105 31.0309H59.2901V31.5396H69.2105V31.0309ZM74.8066 36.627C74.8066 33.5364 72.3012 31.0309 69.2105 31.0309V31.5396C72.0202 31.5396 74.2979 33.8173 74.2979 36.627H74.8066ZM69.7802 42.1945C72.6034 41.9089 74.8066 39.5254 74.8066 36.627H74.2979C74.2979 39.2616 72.295 41.4287 69.729 41.6883L69.7802 42.1945ZM79.4493 45.1861C76.455 43.4859 73.1921 42.3034 69.7998 41.6911L69.7095 42.1917C73.0452 42.7939 76.2537 43.9567 79.1981 45.6285L79.4493 45.1861ZM79.5035 45.5871L81.9629 43.1278L81.6032 42.768L79.1438 45.2274L79.5035 45.5871ZM81.9629 43.1278C83.9497 41.141 87.1708 41.141 89.1576 43.1278L89.5173 42.768C87.3319 40.5826 83.7886 40.5826 81.6032 42.768L81.9629 43.1278ZM89.1576 43.1278C91.1443 45.1145 91.1443 48.3357 89.1576 50.3224L89.5173 50.6821C91.7027 48.4967 91.7027 44.9534 89.5173 42.768L89.1576 43.1278ZM89.1576 50.3224L87.3864 52.0936L87.7461 52.4533L89.5173 50.6821L89.1576 50.3224ZM94.5022 66.8064C93.6122 61.361 91.2689 56.2906 87.7611 52.11L87.3714 52.437C90.8207 56.548 93.1249 61.5338 94.0001 66.8885L94.5022 66.8064ZM93.1182 82.0118C94.8495 77.1722 95.3415 71.9417 94.5022 66.8064L94.0001 66.8885C94.8254 71.9381 94.3416 77.0815 92.6392 81.8405L93.1182 82.0118ZM85.2462 84.4353C88.1244 86.1468 91.9664 85.2315 93.1182 82.0118L92.6392 81.8405C91.6184 84.6938 88.1718 85.5831 85.5062 83.998L85.2462 84.4353ZM82.263 75.7742C81.5383 78.9796 82.3434 82.7092 85.2462 84.4353L85.5062 83.998C82.8652 82.4276 82.0615 78.9722 82.7593 75.8864L82.263 75.7742ZM82.4744 68.7722C82.8575 71.1159 82.7789 73.4926 82.263 75.7742L82.7593 75.8864C83.2895 73.5415 83.3702 71.0989 82.9765 68.6902L82.4744 68.7722ZM76.3345 57.8276C79.6047 60.6402 81.7787 64.5155 82.4744 68.7722L82.9765 68.6902C82.2615 64.3153 80.0271 60.3325 76.6663 57.4419L76.3345 57.8276ZM64.5945 53.3943C68.9075 53.4453 73.0644 55.0151 76.3345 57.8276L76.6663 57.4419C73.3054 54.5514 69.0331 52.938 64.6005 52.8856L64.5945 53.3943ZM52.7528 57.5486C56.0886 54.8142 60.2815 53.3433 64.5945 53.3943L64.6005 52.8856C60.1679 52.8331 55.8586 54.3449 52.4303 57.1552L52.7528 57.5486ZM46.3557 68.3449C47.1519 64.1058 49.4171 60.283 52.7528 57.5486L52.4303 57.1552C49.002 59.9654 46.674 63.8942 45.8557 68.251L46.3557 68.3449ZM48.3992 80.7266C46.283 76.9682 45.5594 72.584 46.3557 68.3449L45.8557 68.251C45.0373 72.6077 45.781 77.1135 47.9559 80.9762L48.3992 80.7266ZM57.9263 88.8947C53.8887 87.3773 50.5154 84.4851 48.3992 80.7266L47.9559 80.9762C50.1308 84.839 53.5978 87.8114 57.7473 89.371L57.9263 88.8947ZM64.8336 90.0614C62.4951 90.1195 60.1492 89.7302 57.9263 88.8947L57.7473 89.371C60.0319 90.2296 62.4429 90.6297 64.8463 90.57L64.8336 90.0614ZM72.7409 94.686C71.618 91.5009 68.1188 89.9797 64.8336 90.0614L64.8463 90.57C68.0089 90.4913 71.2395 91.9573 72.2611 94.8552L72.7409 94.686ZM68.8199 101.929C72.203 101.432 73.8544 97.8441 72.7409 94.686L72.2611 94.8552C73.2924 97.78 71.7441 100.985 68.7459 101.426L68.8199 101.929ZM53.6385 100.303C58.5093 102.134 63.7347 102.677 68.8199 101.929L68.7459 101.426C63.7454 102.162 58.6071 101.627 53.8175 99.8267L53.6385 100.303ZM37.7795 86.706C41.3022 92.9625 46.9176 97.7769 53.6385 100.303L53.8175 99.8267C47.2086 97.3428 41.6868 92.6086 38.2228 86.4564L37.7795 86.706ZM34.3778 66.095C33.0524 73.1516 34.2568 80.4496 37.7795 86.706L38.2228 86.4564C34.7588 80.3043 33.5744 73.1279 34.8778 66.1889L34.3778 66.095ZM45.0267 48.1232C39.4739 52.675 35.7033 59.0384 34.3778 66.095L34.8778 66.1889C36.1812 59.25 39.8889 52.9925 45.3492 48.5167L45.0267 48.1232ZM58.8737 41.7059C53.8203 42.6323 49.0491 44.826 45.0267 48.1232L45.3492 48.5167C49.3046 45.2744 53.9962 43.1173 58.9654 42.2063L58.8737 41.7059ZM53.694 36.627C53.694 39.5873 55.9924 42.0105 58.9022 42.2099L58.937 41.7023C56.2921 41.5211 54.2027 39.318 54.2027 36.627H53.694Z" fill="black" fill-opacity="0.1" mask="url(#path-8-outside-1_7_2)"/>
<defs>
<radialGradient id="paint0_radial_7_2" cx="0" cy="0" r="1" gradientUnits="userSpaceOnUse" gradientTransform="translate(63.9993 118.002) scale(55.0001 6.00004)">
<stop/>
<stop offset="1" stop-opacity="0"/>
</radialGradient>
<radialGradient id="paint1_radial_7_2" cx="0" cy="0" r="1" gradientUnits="userSpaceOnUse" gradientTransform="translate(103.77 118.502) scale(14.2374 2.50002)">
<stop stop-color="#181818"/>
<stop offset="1" stop-color="#181818" stop-opacity="0"/>
</radialGradient>
<radialGradient id="paint2_radial_7_2" cx="0" cy="0" r="1" gradientUnits="userSpaceOnUse" gradientTransform="translate(24.2313 118.502) rotate(180) scale(14.2374 2.50002)">
<stop stop-color="#181818"/>
<stop offset="1" stop-color="#181818" stop-opacity="0"/>
</radialGradient>
<linearGradient id="paint3_linear_7_2" x1="67.0073" y1="121.022" x2="67.0073" y2="116.001" gradientUnits="userSpaceOnUse">
<stop stop-color="#181818" stop-opacity="0"/>
<stop offset="0.5" stop-color="#181818"/>
<stop offset="1" stop-color="#181818" stop-opacity="0"/>
</linearGradient>
<radialGradient id="paint4_radial_7_2" cx="0" cy="0" r="1" gradientUnits="userSpaceOnUse" gradientTransform="translate(66.2063 -32.8723) rotate(90) scale(305.897 375.544)">
<stop stop-color="#E52727"/>
<stop offset="1" stop-color="#9C2222"/>
</radialGradient>
<linearGradient id="paint5_linear_7_2" x1="63.9995" y1="15.1367" x2="63.9995" y2="118.866" gradientUnits="userSpaceOnUse">
<stop stop-color="white"/>
<stop offset="0.063" stop-color="white" stop-opacity="0.235"/>
<stop offset="0.951" stop-color="white" stop-opacity="0.157"/>
<stop offset="1" stop-color="white" stop-opacity="0.392"/>
</linearGradient>
<linearGradient id="paint6_linear_7_2" x1="84.5434" y1="48.5518" x2="64.3775" y2="117.262" gradientUnits="userSpaceOnUse">
<stop stop-color="white"/>
<stop offset="0.405" stop-color="white" stop-opacity="0.2"/>
<stop offset="0.65" stop-color="white" stop-opacity="0.07"/>
<stop offset="0.8" stop-color="white" stop-opacity="0"/>
</linearGradient>
</defs>
</svg>
