<svg width="128" height="128" viewBox="0 0 128 128" fill="none" xmlns="http://www.w3.org/2000/svg">
<path opacity="0.2" d="M119 118.002C119 119.593 113.205 121.119 102.891 122.245C92.5764 123.37 78.5869 124.002 64 124.002C49.4131 124.002 35.4236 123.37 25.1091 122.245C14.7946 121.119 9 119.593 9 118.002C9 116.411 14.7946 114.885 25.1091 113.759C35.4236 112.634 49.4131 112.002 64 112.002C78.5869 112.002 92.5764 112.634 102.891 113.759C113.205 114.885 119 116.411 119 118.002Z" fill="url(#paint0_radial_7_2)"/>
<g opacity="0.4">
<path d="M103.79 116.002H118V121.002H103.79V116.002Z" fill="url(#paint1_radial_7_2)"/>
<path d="M24.211 121.002H10.0005V116.002H24.211V121.002Z" fill="url(#paint2_radial_7_2)"/>
<path d="M24.211 116.002H103.79V121.002H24.211V116.002Z" fill="url(#paint3_linear_7_2)"/>
</g>
<path opacity="0.9" d="M109.445 15.502H18.555C15.2109 15.502 12.5 18.2129 12.5 21.557V112.447C12.5 115.791 15.2109 118.502 18.555 118.502H109.445C112.789 118.502 115.5 115.791 115.5 112.447V21.557C115.5 18.2129 112.789 15.502 109.445 15.502Z" fill="url(#paint4_radial_7_2)"/>
<path opacity="0.3" d="M109.5 16.502H18.5C15.7386 16.502 13.5 18.7406 13.5 21.502V112.502C13.5 115.263 15.7386 117.502 18.5 117.502H109.5C112.261 117.502 114.5 115.263 114.5 112.502V21.502C114.5 18.7406 112.261 16.502 109.5 16.502Z" stroke="url(#paint5_linear_7_2)" stroke-linecap="round" stroke-linejoin="round"/>
<path opacity="0.7" d="M109.445 15.502H18.555C15.2109 15.502 12.5 18.2129 12.5 21.557V112.447C12.5 115.791 15.2109 118.502 18.555 118.502H109.445C112.789 118.502 115.5 115.791 115.5 112.447V21.557C115.5 18.2129 112.789 15.502 109.445 15.502Z" stroke="#860B0B" stroke-linecap="round" stroke-linejoin="round"/>
<g filter="url(#filter0_d_7_2)">
<mask id="path-8-outside-1_7_2" maskUnits="userSpaceOnUse" x="35.7551" y="33.3778" width="57" height="66" fill="black">
<rect fill="white" x="35.7551" y="33.3778" width="57" height="66"/>
<path fill-rule="evenodd" clip-rule="evenodd" d="M54.8605 39.2523C54.8605 36.5602 57.043 34.3778 59.7351 34.3778H68.7878C71.4799 34.3778 73.6623 36.5602 73.6623 39.2523C73.6623 41.7769 71.7432 43.8532 69.2843 44.1019C72.3541 44.6561 75.3068 45.7262 78.0164 47.2646L80.2607 45.0204C82.1643 43.1168 85.2507 43.1168 87.1543 45.0204C89.058 46.924 89.058 50.0104 87.1543 51.914L85.5381 53.5303C88.7124 57.3135 90.8328 61.9018 91.6382 66.8295C92.3978 71.4766 91.9525 76.2099 90.3858 80.5894C89.3946 83.3603 86.069 84.1837 83.5395 82.6795C81.0101 81.1754 80.2761 77.8972 80.9251 75.0267C81.4024 72.9158 81.4751 70.7169 81.1207 68.5485C80.477 64.6102 78.4656 61.0248 75.4401 58.4227C72.4146 55.8205 68.5686 54.3682 64.5783 54.321C60.5879 54.2738 56.7087 55.6347 53.6224 58.1645C50.5362 60.6944 48.4405 64.2312 47.7039 68.1532C46.9672 72.0752 47.6366 76.1314 49.5945 79.6087C51.5524 83.0859 54.6734 85.7618 58.4089 87.1657C60.4655 87.9387 62.6359 88.2989 64.7995 88.2451C67.7415 88.1719 70.812 89.5349 71.7905 92.3104C72.7691 95.0858 71.3091 98.1852 68.3976 98.6134C63.7958 99.2903 59.0672 98.7981 54.6595 97.1415C48.5775 94.8556 43.496 90.4989 40.3082 84.8373C37.1204 79.1757 36.0304 72.5715 37.2299 66.1858C38.4294 59.8001 41.8415 54.0416 46.8664 49.9226C50.5064 46.9388 54.824 44.9537 59.397 44.1153C56.8626 43.9417 54.8605 41.8308 54.8605 39.2523Z"/>
</mask>
<path fill-rule="evenodd" clip-rule="evenodd" d="M54.8605 39.2523C54.8605 36.5602 57.043 34.3778 59.7351 34.3778H68.7878C71.4799 34.3778 73.6623 36.5602 73.6623 39.2523C73.6623 41.7769 71.7432 43.8532 69.2843 44.1019C72.3541 44.6561 75.3068 45.7262 78.0164 47.2646L80.2607 45.0204C82.1643 43.1168 85.2507 43.1168 87.1543 45.0204C89.058 46.924 89.058 50.0104 87.1543 51.914L85.5381 53.5303C88.7124 57.3135 90.8328 61.9018 91.6382 66.8295C92.3978 71.4766 91.9525 76.2099 90.3858 80.5894C89.3946 83.3603 86.069 84.1837 83.5395 82.6795C81.0101 81.1754 80.2761 77.8972 80.9251 75.0267C81.4024 72.9158 81.4751 70.7169 81.1207 68.5485C80.477 64.6102 78.4656 61.0248 75.4401 58.4227C72.4146 55.8205 68.5686 54.3682 64.5783 54.321C60.5879 54.2738 56.7087 55.6347 53.6224 58.1645C50.5362 60.6944 48.4405 64.2312 47.7039 68.1532C46.9672 72.0752 47.6366 76.1314 49.5945 79.6087C51.5524 83.0859 54.6734 85.7618 58.4089 87.1657C60.4655 87.9387 62.6359 88.2989 64.7995 88.2451C67.7415 88.1719 70.812 89.5349 71.7905 92.3104C72.7691 95.0858 71.3091 98.1852 68.3976 98.6134C63.7958 99.2903 59.0672 98.7981 54.6595 97.1415C48.5775 94.8556 43.496 90.4989 40.3082 84.8373C37.1204 79.1757 36.0304 72.5715 37.2299 66.1858C38.4294 59.8001 41.8415 54.0416 46.8664 49.9226C50.5064 46.9388 54.824 44.9537 59.397 44.1153C56.8626 43.9417 54.8605 41.8308 54.8605 39.2523Z" fill="url(#paint6_linear_7_2)" shape-rendering="crispEdges"/>
<path d="M69.2843 44.1019L69.2609 43.871L69.2431 44.3303L69.2843 44.1019ZM78.0164 47.2646L77.9018 47.4665L78.0556 47.5538L78.1806 47.4288L78.0164 47.2646ZM80.2607 45.0204L80.0966 44.8563L80.0966 44.8563L80.2607 45.0204ZM87.1543 45.0204L86.9902 45.1845L86.9902 45.1845L87.1543 45.0204ZM87.1543 51.914L87.3185 52.0782L87.3185 52.0782L87.1543 51.914ZM85.5381 53.5303L85.3739 53.3662L85.2235 53.5165L85.3602 53.6795L85.5381 53.5303ZM91.6382 66.8295L91.4092 66.867L91.4092 66.867L91.6382 66.8295ZM90.3858 80.5894L90.6044 80.6675L90.6044 80.6675L90.3858 80.5894ZM83.5395 82.6795L83.6582 82.48L83.6582 82.48L83.5395 82.6795ZM80.9251 75.0267L80.6987 74.9755L80.6987 74.9755L80.9251 75.0267ZM81.1207 68.5485L81.3498 68.5111L81.3498 68.5111L81.1207 68.5485ZM64.5783 54.321L64.5755 54.5531L64.5755 54.5531L64.5783 54.321ZM53.6224 58.1645L53.4753 57.985L53.4753 57.985L53.6224 58.1645ZM47.7039 68.1532L47.932 68.196L47.932 68.196L47.7039 68.1532ZM58.4089 87.1657L58.3272 87.383L58.3272 87.383L58.4089 87.1657ZM64.7995 88.2451L64.8053 88.4772L64.8053 88.4772L64.7995 88.2451ZM68.3976 98.6134L68.4314 98.8431L68.4314 98.8431L68.3976 98.6134ZM54.6595 97.1415L54.7412 96.9242L54.7412 96.9242L54.6595 97.1415ZM37.2299 66.1858L37.0018 66.1429L37.0018 66.1429L37.2299 66.1858ZM46.8664 49.9226L46.7192 49.743L46.7192 49.743L46.8664 49.9226ZM59.397 44.1153L59.4389 44.3437L59.4129 43.8838L59.397 44.1153ZM59.7351 34.1457C56.9148 34.1457 54.6284 36.432 54.6284 39.2523H55.0927C55.0927 36.6884 57.1711 34.6099 59.7351 34.6099V34.1457ZM68.7878 34.1457H59.7351V34.6099H68.7878V34.1457ZM73.8945 39.2523C73.8945 36.432 71.6081 34.1457 68.7878 34.1457V34.6099C71.3517 34.6099 73.4302 36.6884 73.4302 39.2523H73.8945ZM69.3076 44.3329C71.8839 44.0722 73.8945 41.8972 73.8945 39.2523H73.4302C73.4302 41.6565 71.6025 43.6341 69.2609 43.871L69.3076 44.3329ZM78.131 47.0628C75.3986 45.5114 72.4211 44.4323 69.3255 43.8735L69.2431 44.3303C72.2871 44.8798 75.215 45.9409 77.9018 47.4665L78.131 47.0628ZM78.1806 47.4288L80.4248 45.1845L80.0966 44.8563L77.8523 47.1005L78.1806 47.4288ZM80.4248 45.1845C82.2378 43.3715 85.1772 43.3715 86.9902 45.1845L87.3185 44.8563C85.3242 42.862 82.0908 42.862 80.0966 44.8563L80.4248 45.1845ZM86.9902 45.1845C88.8032 46.9975 88.8032 49.9369 86.9902 51.7499L87.3185 52.0782C89.3127 50.0839 89.3127 46.8505 87.3185 44.8563L86.9902 45.1845ZM86.9902 51.7499L85.3739 53.3662L85.7022 53.6944L87.3185 52.0782L86.9902 51.7499ZM91.8673 66.7921C91.0552 61.823 88.9169 57.1961 85.7159 53.3811L85.3602 53.6795C88.5079 57.4309 90.6105 61.9807 91.4092 66.867L91.8673 66.7921ZM90.6044 80.6675C92.1842 76.2513 92.6332 71.4782 91.8673 66.7921L91.4092 66.867C92.1623 71.475 91.7208 76.1685 90.1672 80.5112L90.6044 80.6675ZM83.4209 82.8791C86.0473 84.4409 89.5533 83.6056 90.6044 80.6675L90.1672 80.5112C89.2358 83.115 86.0906 83.9265 83.6582 82.48L83.4209 82.8791ZM80.6987 74.9755C80.0373 77.9005 80.772 81.3039 83.4209 82.8791L83.6582 82.48C81.2481 81.0469 80.5148 77.8938 81.1515 75.0779L80.6987 74.9755ZM80.8916 68.586C81.2411 70.7246 81.1694 72.8934 80.6987 74.9755L81.1515 75.0779C81.6353 72.9381 81.709 70.7091 81.3498 68.5111L80.8916 68.586ZM75.2887 58.5987C78.2728 61.1652 80.2567 64.7015 80.8916 68.586L81.3498 68.5111C80.6973 64.5189 78.6583 60.8844 75.5914 58.2467L75.2887 58.5987ZM64.5755 54.5531C68.5112 54.5996 72.3046 56.0321 75.2887 58.5987L75.5914 58.2467C72.5245 55.6089 68.6259 54.1367 64.581 54.0889L64.5755 54.5531ZM53.7696 58.344C56.8136 55.8488 60.6398 54.5065 64.5755 54.5531L64.581 54.0889C60.5361 54.041 56.6038 55.4206 53.4753 57.985L53.7696 58.344ZM47.932 68.196C48.6586 64.3277 50.7256 60.8393 53.7696 58.344L53.4753 57.985C50.3468 60.5495 48.2225 64.1346 47.4757 68.1103L47.932 68.196ZM49.7968 79.4948C47.8657 76.065 47.2054 72.0644 47.932 68.196L47.4757 68.1103C46.729 72.086 47.4076 76.1977 49.3922 79.7225L49.7968 79.4948ZM58.4905 86.9485C54.8062 85.5637 51.7279 82.9245 49.7968 79.4948L49.3922 79.7225C51.3769 83.2474 54.5406 85.9598 58.3272 87.383L58.4905 86.9485ZM64.7937 88.0131C62.6597 88.0661 60.519 87.7109 58.4905 86.9485L58.3272 87.383C60.412 88.1666 62.6121 88.5317 64.8053 88.4772L64.7937 88.0131ZM72.0094 92.2332C70.9847 89.3267 67.7916 87.9385 64.7937 88.0131L64.8053 88.4772C67.6913 88.4054 70.6393 89.7432 71.5716 92.3876L72.0094 92.2332ZM68.4314 98.8431C71.5185 98.389 73.0255 95.115 72.0094 92.2332L71.5716 92.3876C72.5126 95.0565 71.0998 97.9813 68.3638 98.3838L68.4314 98.8431ZM54.5778 97.3588C59.0225 99.0293 63.7909 99.5256 68.4314 98.8431L68.3638 98.3838C63.8007 99.055 59.1118 98.5669 54.7412 96.9242L54.5778 97.3588ZM40.1059 84.9512C43.3205 90.6604 48.4447 95.0537 54.5778 97.3588L54.7412 96.9242C48.7103 94.6576 43.6714 90.3375 40.5105 84.7234L40.1059 84.9512ZM37.0018 66.1429C35.7922 72.5823 36.8914 79.242 40.1059 84.9512L40.5105 84.7234C37.3495 79.1093 36.2687 72.5607 37.458 66.2286L37.0018 66.1429ZM46.7192 49.743C41.6521 53.8967 38.2113 59.7036 37.0018 66.1429L37.458 66.2286C38.6474 59.8966 42.0309 54.1865 47.0136 50.1021L46.7192 49.743ZM59.3551 43.887C54.7437 44.7324 50.3899 46.7342 46.7192 49.743L47.0136 50.1021C50.623 47.1434 54.9042 45.175 59.4389 44.3437L59.3551 43.887ZM54.6284 39.2523C54.6284 41.9537 56.7258 44.165 59.3811 44.3469L59.4129 43.8838C56.9994 43.7184 55.0927 41.708 55.0927 39.2523H54.6284Z" fill="white" fill-opacity="0.1" mask="url(#path-8-outside-1_7_2)"/>
<path d="M69.2843 44.1019L69.2609 43.871L69.2431 44.3303L69.2843 44.1019ZM78.0164 47.2646L77.9018 47.4665L78.0556 47.5538L78.1806 47.4288L78.0164 47.2646ZM80.2607 45.0204L80.0966 44.8563L80.0966 44.8563L80.2607 45.0204ZM87.1543 45.0204L86.9902 45.1845L86.9902 45.1845L87.1543 45.0204ZM87.1543 51.914L87.3185 52.0782L87.3185 52.0782L87.1543 51.914ZM85.5381 53.5303L85.3739 53.3662L85.2235 53.5165L85.3602 53.6795L85.5381 53.5303ZM91.6382 66.8295L91.4092 66.867L91.4092 66.867L91.6382 66.8295ZM90.3858 80.5894L90.6044 80.6675L90.6044 80.6675L90.3858 80.5894ZM83.5395 82.6795L83.6582 82.48L83.6582 82.48L83.5395 82.6795ZM80.9251 75.0267L80.6987 74.9755L80.6987 74.9755L80.9251 75.0267ZM81.1207 68.5485L81.3498 68.5111L81.3498 68.5111L81.1207 68.5485ZM64.5783 54.321L64.5755 54.5531L64.5755 54.5531L64.5783 54.321ZM53.6224 58.1645L53.4753 57.985L53.4753 57.985L53.6224 58.1645ZM47.7039 68.1532L47.932 68.196L47.932 68.196L47.7039 68.1532ZM58.4089 87.1657L58.3272 87.383L58.3272 87.383L58.4089 87.1657ZM64.7995 88.2451L64.8053 88.4772L64.8053 88.4772L64.7995 88.2451ZM68.3976 98.6134L68.4314 98.8431L68.4314 98.8431L68.3976 98.6134ZM54.6595 97.1415L54.7412 96.9242L54.7412 96.9242L54.6595 97.1415ZM37.2299 66.1858L37.0018 66.1429L37.0018 66.1429L37.2299 66.1858ZM46.8664 49.9226L46.7192 49.743L46.7192 49.743L46.8664 49.9226ZM59.397 44.1153L59.4389 44.3437L59.4129 43.8838L59.397 44.1153ZM59.7351 34.1457C56.9148 34.1457 54.6284 36.432 54.6284 39.2523H55.0927C55.0927 36.6884 57.1711 34.6099 59.7351 34.6099V34.1457ZM68.7878 34.1457H59.7351V34.6099H68.7878V34.1457ZM73.8945 39.2523C73.8945 36.432 71.6081 34.1457 68.7878 34.1457V34.6099C71.3517 34.6099 73.4302 36.6884 73.4302 39.2523H73.8945ZM69.3076 44.3329C71.8839 44.0722 73.8945 41.8972 73.8945 39.2523H73.4302C73.4302 41.6565 71.6025 43.6341 69.2609 43.871L69.3076 44.3329ZM78.131 47.0628C75.3986 45.5114 72.4211 44.4323 69.3255 43.8735L69.2431 44.3303C72.2871 44.8798 75.215 45.9409 77.9018 47.4665L78.131 47.0628ZM78.1806 47.4288L80.4248 45.1845L80.0966 44.8563L77.8523 47.1005L78.1806 47.4288ZM80.4248 45.1845C82.2378 43.3715 85.1772 43.3715 86.9902 45.1845L87.3185 44.8563C85.3242 42.862 82.0908 42.862 80.0966 44.8563L80.4248 45.1845ZM86.9902 45.1845C88.8032 46.9975 88.8032 49.9369 86.9902 51.7499L87.3185 52.0782C89.3127 50.0839 89.3127 46.8505 87.3185 44.8563L86.9902 45.1845ZM86.9902 51.7499L85.3739 53.3662L85.7022 53.6944L87.3185 52.0782L86.9902 51.7499ZM91.8673 66.7921C91.0552 61.823 88.9169 57.1961 85.7159 53.3811L85.3602 53.6795C88.5079 57.4309 90.6105 61.9807 91.4092 66.867L91.8673 66.7921ZM90.6044 80.6675C92.1842 76.2513 92.6332 71.4782 91.8673 66.7921L91.4092 66.867C92.1623 71.475 91.7208 76.1685 90.1672 80.5112L90.6044 80.6675ZM83.4209 82.8791C86.0473 84.4409 89.5533 83.6056 90.6044 80.6675L90.1672 80.5112C89.2358 83.115 86.0906 83.9265 83.6582 82.48L83.4209 82.8791ZM80.6987 74.9755C80.0373 77.9005 80.772 81.3039 83.4209 82.8791L83.6582 82.48C81.2481 81.0469 80.5148 77.8938 81.1515 75.0779L80.6987 74.9755ZM80.8916 68.586C81.2411 70.7246 81.1694 72.8934 80.6987 74.9755L81.1515 75.0779C81.6353 72.9381 81.709 70.7091 81.3498 68.5111L80.8916 68.586ZM75.2887 58.5987C78.2728 61.1652 80.2567 64.7015 80.8916 68.586L81.3498 68.5111C80.6973 64.5189 78.6583 60.8844 75.5914 58.2467L75.2887 58.5987ZM64.5755 54.5531C68.5112 54.5996 72.3046 56.0321 75.2887 58.5987L75.5914 58.2467C72.5245 55.6089 68.6259 54.1367 64.581 54.0889L64.5755 54.5531ZM53.7696 58.344C56.8136 55.8488 60.6398 54.5065 64.5755 54.5531L64.581 54.0889C60.5361 54.041 56.6038 55.4206 53.4753 57.985L53.7696 58.344ZM47.932 68.196C48.6586 64.3277 50.7256 60.8393 53.7696 58.344L53.4753 57.985C50.3468 60.5495 48.2225 64.1346 47.4757 68.1103L47.932 68.196ZM49.7968 79.4948C47.8657 76.065 47.2054 72.0644 47.932 68.196L47.4757 68.1103C46.729 72.086 47.4076 76.1977 49.3922 79.7225L49.7968 79.4948ZM58.4905 86.9485C54.8062 85.5637 51.7279 82.9245 49.7968 79.4948L49.3922 79.7225C51.3769 83.2474 54.5406 85.9598 58.3272 87.383L58.4905 86.9485ZM64.7937 88.0131C62.6597 88.0661 60.519 87.7109 58.4905 86.9485L58.3272 87.383C60.412 88.1666 62.6121 88.5317 64.8053 88.4772L64.7937 88.0131ZM72.0094 92.2332C70.9847 89.3267 67.7916 87.9385 64.7937 88.0131L64.8053 88.4772C67.6913 88.4054 70.6393 89.7432 71.5716 92.3876L72.0094 92.2332ZM68.4314 98.8431C71.5185 98.389 73.0255 95.115 72.0094 92.2332L71.5716 92.3876C72.5126 95.0565 71.0998 97.9813 68.3638 98.3838L68.4314 98.8431ZM54.5778 97.3588C59.0225 99.0293 63.7909 99.5256 68.4314 98.8431L68.3638 98.3838C63.8007 99.055 59.1118 98.5669 54.7412 96.9242L54.5778 97.3588ZM40.1059 84.9512C43.3205 90.6604 48.4447 95.0537 54.5778 97.3588L54.7412 96.9242C48.7103 94.6576 43.6714 90.3375 40.5105 84.7234L40.1059 84.9512ZM37.0018 66.1429C35.7922 72.5823 36.8914 79.242 40.1059 84.9512L40.5105 84.7234C37.3495 79.1093 36.2687 72.5607 37.458 66.2286L37.0018 66.1429ZM46.7192 49.743C41.6521 53.8967 38.2113 59.7036 37.0018 66.1429L37.458 66.2286C38.6474 59.8966 42.0309 54.1865 47.0136 50.1021L46.7192 49.743ZM59.3551 43.887C54.7437 44.7324 50.3899 46.7342 46.7192 49.743L47.0136 50.1021C50.623 47.1434 54.9042 45.175 59.4389 44.3437L59.3551 43.887ZM54.6284 39.2523C54.6284 41.9537 56.7258 44.165 59.3811 44.3469L59.4129 43.8838C56.9994 43.7184 55.0927 41.708 55.0927 39.2523H54.6284Z" fill="black" fill-opacity="0.1" mask="url(#path-8-outside-1_7_2)"/>
</g>
<defs>
<filter id="filter0_d_7_2" x="27.323" y="28.9457" width="74.1091" height="83.3939" filterUnits="userSpaceOnUse" color-interpolation-filters="sRGB">
<feFlood flood-opacity="0" result="BackgroundImageFix"/>
<feColorMatrix in="SourceAlpha" type="matrix" values="0 0 0 0 0 0 0 0 0 0 0 0 0 0 0 0 0 0 127 0" result="hardAlpha"/>
<feOffset dy="4"/>
<feGaussianBlur stdDeviation="4.6"/>
<feComposite in2="hardAlpha" operator="out"/>
<feColorMatrix type="matrix" values="0 0 0 0 0 0 0 0 0 0 0 0 0 0 0 0 0 0 0.15 0"/>
<feBlend mode="normal" in2="BackgroundImageFix" result="effect1_dropShadow_7_2"/>
<feBlend mode="normal" in="SourceGraphic" in2="effect1_dropShadow_7_2" result="shape"/>
</filter>
<radialGradient id="paint0_radial_7_2" cx="0" cy="0" r="1" gradientUnits="userSpaceOnUse" gradientTransform="translate(63.9993 118.002) scale(55.0001 6.00004)">
<stop/>
<stop offset="1" stop-opacity="0"/>
</radialGradient>
<radialGradient id="paint1_radial_7_2" cx="0" cy="0" r="1" gradientUnits="userSpaceOnUse" gradientTransform="translate(103.77 118.502) scale(14.2374 2.50002)">
<stop stop-color="#181818"/>
<stop offset="1" stop-color="#181818" stop-opacity="0"/>
</radialGradient>
<radialGradient id="paint2_radial_7_2" cx="0" cy="0" r="1" gradientUnits="userSpaceOnUse" gradientTransform="translate(24.2313 118.502) rotate(180) scale(14.2374 2.50002)">
<stop stop-color="#181818"/>
<stop offset="1" stop-color="#181818" stop-opacity="0"/>
</radialGradient>
<linearGradient id="paint3_linear_7_2" x1="67.0073" y1="121.022" x2="67.0073" y2="116.001" gradientUnits="userSpaceOnUse">
<stop stop-color="#181818" stop-opacity="0"/>
<stop offset="0.5" stop-color="#181818"/>
<stop offset="1" stop-color="#181818" stop-opacity="0"/>
</linearGradient>
<radialGradient id="paint4_radial_7_2" cx="0" cy="0" r="1" gradientUnits="userSpaceOnUse" gradientTransform="translate(66.2063 -32.8723) rotate(90) scale(305.897 375.544)">
<stop stop-color="#E52727"/>
<stop offset="1" stop-color="#9C2222"/>
</radialGradient>
<linearGradient id="paint5_linear_7_2" x1="63.9995" y1="15.1367" x2="63.9995" y2="118.866" gradientUnits="userSpaceOnUse">
<stop stop-color="white"/>
<stop offset="0.063" stop-color="white" stop-opacity="0.235"/>
<stop offset="0.951" stop-color="white" stop-opacity="0.157"/>
<stop offset="1" stop-color="white" stop-opacity="0.392"/>
</linearGradient>
<linearGradient id="paint6_linear_7_2" x1="82.7796" y1="50.1341" x2="64.3775" y2="112.835" gradientUnits="userSpaceOnUse">
<stop stop-color="white"/>
<stop offset="0.405" stop-color="white" stop-opacity="0.2"/>
<stop offset="0.65" stop-color="white" stop-opacity="0.07"/>
<stop offset="0.8" stop-color="white" stop-opacity="0"/>
</linearGradient>
</defs>
</svg>
