<svg width="32" height="32" viewBox="0 0 32 32" fill="none" xmlns="http://www.w3.org/2000/svg">
<g clip-path="url(#clip0_1_32)">
<rect width="32" height="32" rx="6.44961" transform="matrix(-1 8.74228e-08 8.74228e-08 1 32 0)" fill="url(#paint0_linear_1_32)"/>
<rect x="-0.15" y="0.15" width="31.7" height="31.7" rx="6.29961" transform="matrix(-1 8.74228e-08 8.74228e-08 1 31.7 1.31134e-08)" stroke="white" stroke-opacity="0.1" stroke-width="0.3"/>
<mask id="path-3-outside-1_1_32" maskUnits="userSpaceOnUse" x="5.88116" y="3.46509" width="21" height="25" fill="black">
<rect fill="white" x="5.88116" y="3.46509" width="21" height="25"/>
<path fill-rule="evenodd" clip-rule="evenodd" d="M19.4316 6.20152C19.4316 5.24251 18.6542 4.46509 17.6952 4.46509L14.4704 4.46509C13.5114 4.46509 12.734 5.24252 12.734 6.20152C12.734 7.10085 13.4176 7.84049 14.2936 7.92907C13.2 8.12646 12.1481 8.50768 11.1828 9.05577L10.3833 8.25625C9.70516 7.57813 8.60572 7.57813 7.9276 8.25625C7.24948 8.93437 7.24948 10.0338 7.9276 10.7119L8.50342 11.2878C7.37268 12.6354 6.61733 14.2699 6.33043 16.0252C6.05987 17.6806 6.21848 19.3668 6.77657 20.9268C7.12968 21.9139 8.31434 22.2072 9.2154 21.6714C10.1165 21.1356 10.3779 19.9678 10.1467 18.9453C9.9767 18.1933 9.95081 17.41 10.077 16.6376C10.3063 15.2347 11.0229 13.9575 12.1006 13.0305C13.1784 12.1036 14.5484 11.5862 15.9699 11.5694C17.3913 11.5526 18.7732 12.0374 19.8726 12.9385C20.972 13.8397 21.7185 15.0996 21.981 16.4968C22.2434 17.8939 22.0049 19.3388 21.3075 20.5775C20.61 21.8162 19.4982 22.7694 18.1676 23.2695C17.4349 23.5449 16.6618 23.6732 15.8911 23.654C14.8431 23.6279 13.7493 24.1135 13.4007 25.1022C13.0521 26.0908 13.5722 27.1949 14.6093 27.3475C16.2486 27.5886 17.9331 27.4133 19.5032 26.8231C21.6697 26.0088 23.4799 24.4569 24.6155 22.4401C25.751 20.4232 26.1393 18.0707 25.712 15.7959C25.2848 13.5212 24.0693 11.4698 22.2793 10.0026C20.9826 8.93963 19.4445 8.23248 17.8155 7.93386C18.7184 7.8721 19.4316 7.12011 19.4316 6.20152Z"/>
</mask>
<path fill-rule="evenodd" clip-rule="evenodd" d="M19.4316 6.20152C19.4316 5.24251 18.6542 4.46509 17.6952 4.46509L14.4704 4.46509C13.5114 4.46509 12.734 5.24252 12.734 6.20152C12.734 7.10085 13.4176 7.84049 14.2936 7.92907C13.2 8.12646 12.1481 8.50768 11.1828 9.05577L10.3833 8.25625C9.70516 7.57813 8.60572 7.57813 7.9276 8.25625C7.24948 8.93437 7.24948 10.0338 7.9276 10.7119L8.50342 11.2878C7.37268 12.6354 6.61733 14.2699 6.33043 16.0252C6.05987 17.6806 6.21848 19.3668 6.77657 20.9268C7.12968 21.9139 8.31434 22.2072 9.2154 21.6714C10.1165 21.1356 10.3779 19.9678 10.1467 18.9453C9.9767 18.1933 9.95081 17.41 10.077 16.6376C10.3063 15.2347 11.0229 13.9575 12.1006 13.0305C13.1784 12.1036 14.5484 11.5862 15.9699 11.5694C17.3913 11.5526 18.7732 12.0374 19.8726 12.9385C20.972 13.8397 21.7185 15.0996 21.981 16.4968C22.2434 17.8939 22.0049 19.3388 21.3075 20.5775C20.61 21.8162 19.4982 22.7694 18.1676 23.2695C17.4349 23.5449 16.6618 23.6732 15.8911 23.654C14.8431 23.6279 13.7493 24.1135 13.4007 25.1022C13.0521 26.0908 13.5722 27.1949 14.6093 27.3475C16.2486 27.5886 17.9331 27.4133 19.5032 26.8231C21.6697 26.0088 23.4799 24.4569 24.6155 22.4401C25.751 20.4232 26.1393 18.0707 25.712 15.7959C25.2848 13.5212 24.0693 11.4698 22.2793 10.0026C20.9826 8.93963 19.4445 8.23248 17.8155 7.93386C18.7184 7.8721 19.4316 7.12011 19.4316 6.20152Z" fill="url(#paint1_linear_1_32)"/>
<path d="M14.2936 7.92907L14.3019 7.8468L14.3083 8.01044L14.2936 7.92907ZM11.1828 9.05577L11.2236 9.12768L11.1689 9.15877L11.1243 9.11424L11.1828 9.05577ZM10.3833 8.25625L10.3248 8.31472L10.3248 8.31472L10.3833 8.25625ZM7.9276 8.25625L7.98607 8.31472L7.98607 8.31472L7.9276 8.25625ZM7.9276 10.7119L7.86913 10.7704L7.86913 10.7704L7.9276 10.7119ZM8.50342 11.2878L8.56189 11.2293L8.61547 11.2829L8.56677 11.3409L8.50342 11.2878ZM6.33043 16.0252L6.24882 16.0119L6.24882 16.0119L6.33043 16.0252ZM6.77657 20.9268L6.85443 20.899L6.85443 20.899L6.77657 20.9268ZM9.2154 21.6714L9.25766 21.7425L9.25766 21.7425L9.2154 21.6714ZM10.1467 18.9453L10.0661 18.9635L10.0661 18.9635L10.1467 18.9453ZM10.077 16.6376L9.99544 16.6243L9.99544 16.6243L10.077 16.6376ZM19.8726 12.9385L19.8202 13.0025L19.8202 13.0025L19.8726 12.9385ZM21.3075 20.5775L21.2354 20.5369L21.2354 20.5369L21.3075 20.5775ZM18.1676 23.2695L18.1967 23.3469L18.1967 23.3469L18.1676 23.2695ZM15.8911 23.654L15.8931 23.5713L15.8931 23.5713L15.8911 23.654ZM13.4007 25.1022L13.3227 25.0747L13.3227 25.0747L13.4007 25.1022ZM14.6093 27.3475L14.5973 27.4293L14.5973 27.4293L14.6093 27.3475ZM19.5032 26.8231L19.5323 26.9005L19.5323 26.9005L19.5032 26.8231ZM24.6155 22.4401L24.5434 22.3995L24.5434 22.3995L24.6155 22.4401ZM25.712 15.7959L25.6308 15.8112L25.6308 15.8112L25.712 15.7959ZM22.2793 10.0026L22.2269 10.0665L22.2269 10.0665L22.2793 10.0026ZM17.8155 7.93386L17.8005 8.01519L17.8098 7.85136L17.8155 7.93386ZM17.6952 4.3824C18.6999 4.3824 19.5143 5.19685 19.5143 6.20152L19.349 6.20152C19.349 5.28818 18.6085 4.54778 17.6952 4.54778L17.6952 4.3824ZM14.4704 4.3824L17.6952 4.3824L17.6952 4.54778L14.4704 4.54778L14.4704 4.3824ZM12.6513 6.20152C12.6513 5.19685 13.4657 4.3824 14.4704 4.3824L14.4704 4.54778C13.5571 4.54778 12.8167 5.28818 12.8167 6.20152L12.6513 6.20152ZM14.2853 8.01134C13.3675 7.91854 12.6513 7.14372 12.6513 6.20152L12.8167 6.20152C12.8167 7.05797 13.4678 7.76245 14.3019 7.8468L14.2853 8.01134ZM11.142 8.98387C12.1154 8.43117 13.1761 8.04675 14.2789 7.84769L14.3083 8.01044C13.2239 8.20617 12.1808 8.58419 11.2236 9.12768L11.142 8.98387ZM11.1243 9.11424L10.3248 8.31472L10.4418 8.19778L11.2413 8.9973L11.1243 9.11424ZM10.3248 8.31472C9.67899 7.66889 8.63189 7.66889 7.98607 8.31472L7.86913 8.19778C8.57954 7.48737 9.73134 7.48737 10.4418 8.19778L10.3248 8.31472ZM7.98607 8.31472C7.34024 8.96055 7.34024 10.0076 7.98607 10.6535L7.86913 10.7704C7.15872 10.06 7.15872 8.90819 7.86913 8.19778L7.98607 8.31472ZM7.98607 10.6535L8.56189 11.2293L8.44495 11.3462L7.86913 10.7704L7.98607 10.6535ZM6.24882 16.0119C6.53813 14.2418 7.29983 12.5936 8.44008 11.2346L8.56677 11.3409C7.44552 12.6773 6.69652 14.298 6.41203 16.0386L6.24882 16.0119ZM6.69872 20.9547C6.13594 19.3815 5.97599 17.6812 6.24882 16.0119L6.41203 16.0386C6.14375 17.6801 6.30103 19.352 6.85443 20.899L6.69872 20.9547ZM9.25766 21.7425C8.32205 22.2988 7.07312 22.0013 6.69872 20.9547L6.85443 20.899C7.18624 21.8265 8.30663 22.1156 9.17313 21.6003L9.25766 21.7425ZM10.2274 18.9271C10.463 19.969 10.2013 21.1814 9.25766 21.7425L9.17313 21.6003C10.0316 21.0898 10.2929 19.9666 10.0661 18.9635L10.2274 18.9271ZM10.1587 16.6509C10.0341 17.4128 10.0597 18.1854 10.2274 18.9271L10.0661 18.9635C9.89372 18.2013 9.86747 17.4072 9.99544 16.6243L10.1587 16.6509ZM12.1545 13.0932C11.0915 14.0075 10.3848 15.2672 10.1587 16.6509L9.99544 16.6243C10.2279 15.2021 10.9542 13.9074 12.0467 12.9678L12.1545 13.0932ZM15.9708 11.6521C14.5688 11.6686 13.2176 12.1789 12.1545 13.0932L12.0467 12.9678C13.1392 12.0282 14.528 11.5037 15.9689 11.4867L15.9708 11.6521ZM19.8202 13.0025C18.7358 12.1136 17.3729 11.6355 15.9708 11.6521L15.9689 11.4867C17.4098 11.4696 18.8106 11.9611 19.925 12.8746L19.8202 13.0025ZM21.8997 16.512C21.6409 15.134 20.9045 13.8914 19.8202 13.0025L19.925 12.8746C21.0395 13.7881 21.7962 15.0653 22.0622 16.4815L21.8997 16.512ZM21.2354 20.5369C21.9233 19.3152 22.1585 17.89 21.8997 16.512L22.0622 16.4815C22.3282 17.8977 22.0865 19.3624 21.3795 20.6181L21.2354 20.5369ZM18.1385 23.1921C19.4509 22.6988 20.5475 21.7587 21.2354 20.5369L21.3795 20.6181C20.6725 21.8737 19.5455 22.8399 18.1967 23.3469L18.1385 23.1921ZM15.8931 23.5713C16.6533 23.5903 17.4159 23.4637 18.1385 23.1921L18.1967 23.3469C17.454 23.626 16.6703 23.7561 15.889 23.7367L15.8931 23.5713ZM13.3227 25.0747C13.6877 24.0393 14.8252 23.5448 15.8931 23.5713L15.889 23.7367C14.8609 23.7111 13.8108 24.1877 13.4787 25.1297L13.3227 25.0747ZM14.5973 27.4293C13.4976 27.2675 12.9608 26.1013 13.3227 25.0747L13.4787 25.1297C13.1435 26.0804 13.6468 27.1223 14.6214 27.2657L14.5973 27.4293ZM19.5323 26.9005C17.949 27.4956 16.2503 27.6724 14.5973 27.4293L14.6214 27.2657C16.2469 27.5047 17.9172 27.3309 19.4741 26.7457L19.5323 26.9005ZM24.6875 22.4806C23.5424 24.5144 21.717 26.0794 19.5323 26.9005L19.4741 26.7457C21.6224 25.9383 23.4174 24.3994 24.5434 22.3995L24.6875 22.4806ZM25.7933 15.7807C26.2242 18.0745 25.8326 20.4469 24.6875 22.4806L24.5434 22.3995C25.6695 20.3996 26.0545 18.0668 25.6308 15.8112L25.7933 15.7807ZM22.3317 9.93861C24.1367 11.4182 25.3624 13.4868 25.7933 15.7807L25.6308 15.8112C25.2071 13.5556 24.0018 11.5215 22.2269 10.0665L22.3317 9.93861ZM17.8304 7.85252C19.4731 8.15366 21.0241 8.86675 22.3317 9.93861L22.2269 10.0665C20.9411 9.01252 19.4159 8.31131 17.8005 8.01519L17.8304 7.85252ZM19.5143 6.20152C19.5143 7.16388 18.7671 7.95165 17.8211 8.01635L17.8098 7.85136C18.6696 7.79255 19.349 7.07633 19.349 6.20152L19.5143 6.20152Z" fill="white" fill-opacity="0.1" mask="url(#path-3-outside-1_1_32)"/>
<path d="M14.2936 7.92907L14.3019 7.8468L14.3083 8.01044L14.2936 7.92907ZM11.1828 9.05577L11.2236 9.12768L11.1689 9.15877L11.1243 9.11424L11.1828 9.05577ZM10.3833 8.25625L10.3248 8.31472L10.3248 8.31472L10.3833 8.25625ZM7.9276 8.25625L7.98607 8.31472L7.98607 8.31472L7.9276 8.25625ZM7.9276 10.7119L7.86913 10.7704L7.86913 10.7704L7.9276 10.7119ZM8.50342 11.2878L8.56189 11.2293L8.61547 11.2829L8.56677 11.3409L8.50342 11.2878ZM6.33043 16.0252L6.24882 16.0119L6.24882 16.0119L6.33043 16.0252ZM6.77657 20.9268L6.85443 20.899L6.85443 20.899L6.77657 20.9268ZM9.2154 21.6714L9.25766 21.7425L9.25766 21.7425L9.2154 21.6714ZM10.1467 18.9453L10.0661 18.9635L10.0661 18.9635L10.1467 18.9453ZM10.077 16.6376L9.99544 16.6243L9.99544 16.6243L10.077 16.6376ZM19.8726 12.9385L19.8202 13.0025L19.8202 13.0025L19.8726 12.9385ZM21.3075 20.5775L21.2354 20.5369L21.2354 20.5369L21.3075 20.5775ZM18.1676 23.2695L18.1967 23.3469L18.1967 23.3469L18.1676 23.2695ZM15.8911 23.654L15.8931 23.5713L15.8931 23.5713L15.8911 23.654ZM13.4007 25.1022L13.3227 25.0747L13.3227 25.0747L13.4007 25.1022ZM14.6093 27.3475L14.5973 27.4293L14.5973 27.4293L14.6093 27.3475ZM19.5032 26.8231L19.5323 26.9005L19.5323 26.9005L19.5032 26.8231ZM24.6155 22.4401L24.5434 22.3995L24.5434 22.3995L24.6155 22.4401ZM25.712 15.7959L25.6308 15.8112L25.6308 15.8112L25.712 15.7959ZM22.2793 10.0026L22.2269 10.0665L22.2269 10.0665L22.2793 10.0026ZM17.8155 7.93386L17.8005 8.01519L17.8098 7.85136L17.8155 7.93386ZM17.6952 4.3824C18.6999 4.3824 19.5143 5.19685 19.5143 6.20152L19.349 6.20152C19.349 5.28818 18.6085 4.54778 17.6952 4.54778L17.6952 4.3824ZM14.4704 4.3824L17.6952 4.3824L17.6952 4.54778L14.4704 4.54778L14.4704 4.3824ZM12.6513 6.20152C12.6513 5.19685 13.4657 4.3824 14.4704 4.3824L14.4704 4.54778C13.5571 4.54778 12.8167 5.28818 12.8167 6.20152L12.6513 6.20152ZM14.2853 8.01134C13.3675 7.91854 12.6513 7.14372 12.6513 6.20152L12.8167 6.20152C12.8167 7.05797 13.4678 7.76245 14.3019 7.8468L14.2853 8.01134ZM11.142 8.98387C12.1154 8.43117 13.1761 8.04675 14.2789 7.84769L14.3083 8.01044C13.2239 8.20617 12.1808 8.58419 11.2236 9.12768L11.142 8.98387ZM11.1243 9.11424L10.3248 8.31472L10.4418 8.19778L11.2413 8.9973L11.1243 9.11424ZM10.3248 8.31472C9.67899 7.66889 8.63189 7.66889 7.98607 8.31472L7.86913 8.19778C8.57954 7.48737 9.73134 7.48737 10.4418 8.19778L10.3248 8.31472ZM7.98607 8.31472C7.34024 8.96055 7.34024 10.0076 7.98607 10.6535L7.86913 10.7704C7.15872 10.06 7.15872 8.90819 7.86913 8.19778L7.98607 8.31472ZM7.98607 10.6535L8.56189 11.2293L8.44495 11.3462L7.86913 10.7704L7.98607 10.6535ZM6.24882 16.0119C6.53813 14.2418 7.29983 12.5936 8.44008 11.2346L8.56677 11.3409C7.44552 12.6773 6.69652 14.298 6.41203 16.0386L6.24882 16.0119ZM6.69872 20.9547C6.13594 19.3815 5.97599 17.6812 6.24882 16.0119L6.41203 16.0386C6.14375 17.6801 6.30103 19.352 6.85443 20.899L6.69872 20.9547ZM9.25766 21.7425C8.32205 22.2988 7.07312 22.0013 6.69872 20.9547L6.85443 20.899C7.18624 21.8265 8.30663 22.1156 9.17313 21.6003L9.25766 21.7425ZM10.2274 18.9271C10.463 19.969 10.2013 21.1814 9.25766 21.7425L9.17313 21.6003C10.0316 21.0898 10.2929 19.9666 10.0661 18.9635L10.2274 18.9271ZM10.1587 16.6509C10.0341 17.4128 10.0597 18.1854 10.2274 18.9271L10.0661 18.9635C9.89372 18.2013 9.86747 17.4072 9.99544 16.6243L10.1587 16.6509ZM12.1545 13.0932C11.0915 14.0075 10.3848 15.2672 10.1587 16.6509L9.99544 16.6243C10.2279 15.2021 10.9542 13.9074 12.0467 12.9678L12.1545 13.0932ZM15.9708 11.6521C14.5688 11.6686 13.2176 12.1789 12.1545 13.0932L12.0467 12.9678C13.1392 12.0282 14.528 11.5037 15.9689 11.4867L15.9708 11.6521ZM19.8202 13.0025C18.7358 12.1136 17.3729 11.6355 15.9708 11.6521L15.9689 11.4867C17.4098 11.4696 18.8106 11.9611 19.925 12.8746L19.8202 13.0025ZM21.8997 16.512C21.6409 15.134 20.9045 13.8914 19.8202 13.0025L19.925 12.8746C21.0395 13.7881 21.7962 15.0653 22.0622 16.4815L21.8997 16.512ZM21.2354 20.5369C21.9233 19.3152 22.1585 17.89 21.8997 16.512L22.0622 16.4815C22.3282 17.8977 22.0865 19.3624 21.3795 20.6181L21.2354 20.5369ZM18.1385 23.1921C19.4509 22.6988 20.5475 21.7587 21.2354 20.5369L21.3795 20.6181C20.6725 21.8737 19.5455 22.8399 18.1967 23.3469L18.1385 23.1921ZM15.8931 23.5713C16.6533 23.5903 17.4159 23.4637 18.1385 23.1921L18.1967 23.3469C17.454 23.626 16.6703 23.7561 15.889 23.7367L15.8931 23.5713ZM13.3227 25.0747C13.6877 24.0393 14.8252 23.5448 15.8931 23.5713L15.889 23.7367C14.8609 23.7111 13.8108 24.1877 13.4787 25.1297L13.3227 25.0747ZM14.5973 27.4293C13.4976 27.2675 12.9608 26.1013 13.3227 25.0747L13.4787 25.1297C13.1435 26.0804 13.6468 27.1223 14.6214 27.2657L14.5973 27.4293ZM19.5323 26.9005C17.949 27.4956 16.2503 27.6724 14.5973 27.4293L14.6214 27.2657C16.2469 27.5047 17.9172 27.3309 19.4741 26.7457L19.5323 26.9005ZM24.6875 22.4806C23.5424 24.5144 21.717 26.0794 19.5323 26.9005L19.4741 26.7457C21.6224 25.9383 23.4174 24.3994 24.5434 22.3995L24.6875 22.4806ZM25.7933 15.7807C26.2242 18.0745 25.8326 20.4469 24.6875 22.4806L24.5434 22.3995C25.6695 20.3996 26.0545 18.0668 25.6308 15.8112L25.7933 15.7807ZM22.3317 9.93861C24.1367 11.4182 25.3624 13.4868 25.7933 15.7807L25.6308 15.8112C25.2071 13.5556 24.0018 11.5215 22.2269 10.0665L22.3317 9.93861ZM17.8304 7.85252C19.4731 8.15366 21.0241 8.86675 22.3317 9.93861L22.2269 10.0665C20.9411 9.01252 19.4159 8.31131 17.8005 8.01519L17.8304 7.85252ZM19.5143 6.20152C19.5143 7.16388 18.7671 7.95165 17.8211 8.01635L17.8098 7.85136C18.6696 7.79255 19.349 7.07633 19.349 6.20152L19.5143 6.20152Z" fill="black" fill-opacity="0.1" mask="url(#path-3-outside-1_1_32)"/>
<g filter="url(#filter0_f_1_32)">
<ellipse cx="6.03618" cy="5.25065" rx="6.03618" ry="5.25065" transform="matrix(-1 8.74228e-08 8.74228e-08 1 21.0025 20.9199)" fill="url(#paint2_linear_1_32)"/>
</g>
</g>
<defs>
<filter id="filter0_f_1_32" x="6.11881" y="18.1086" width="17.6951" height="16.124" filterUnits="userSpaceOnUse" color-interpolation-filters="sRGB">
<feFlood flood-opacity="0" result="BackgroundImageFix"/>
<feBlend mode="normal" in="SourceGraphic" in2="BackgroundImageFix" result="shape"/>
<feGaussianBlur stdDeviation="1.40568" result="effect1_foregroundBlur_1_32"/>
</filter>
<linearGradient id="paint0_linear_1_32" x1="29.354" y1="1.36434" x2="2.2739" y2="32.5375" gradientUnits="userSpaceOnUse">
<stop stop-color="#E52727"/>
<stop offset="1" stop-color="#9C2222"/>
</linearGradient>
<linearGradient id="paint1_linear_1_32" x1="9.48609" y1="10.0779" x2="16.0414" y2="32.4134" gradientUnits="userSpaceOnUse">
<stop stop-color="white"/>
<stop offset="0.405" stop-color="white" stop-opacity="0.2"/>
<stop offset="0.65" stop-color="white" stop-opacity="0.07"/>
<stop offset="0.8" stop-color="white" stop-opacity="0"/>
</linearGradient>
<linearGradient id="paint2_linear_1_32" x1="7.4832" y1="3.80362" x2="1.57106" y2="10.9147" gradientUnits="userSpaceOnUse">
<stop stop-color="#BB2626"/>
<stop offset="1" stop-color="#A72222"/>
</linearGradient>
<clipPath id="clip0_1_32">
<rect width="32" height="32" fill="white"/>
</clipPath>
</defs>
</svg>
