<svg width="48" height="48" viewBox="0 0 48 48" fill="none" xmlns="http://www.w3.org/2000/svg">
<g clip-path="url(#clip0_1_40)">
<rect width="48" height="48" rx="9.67442" transform="matrix(-1 8.74228e-08 8.74228e-08 1 48 0)" fill="url(#paint0_linear_1_40)"/>
<rect x="-0.2" y="0.2" width="47.6" height="47.6" rx="9.47442" transform="matrix(-1 8.74228e-08 8.74228e-08 1 47.6 1.74846e-08)" stroke="white" stroke-opacity="0.1" stroke-width="0.4"/>
<mask id="path-3-outside-1_1_40" maskUnits="userSpaceOnUse" x="8.82172" y="5.69763" width="31" height="36" fill="black">
<rect fill="white" x="8.82172" y="5.69763" width="31" height="36"/>
<path fill-rule="evenodd" clip-rule="evenodd" d="M29.1475 9.30228C29.1475 7.86377 27.9813 6.69763 26.5428 6.69763L21.7056 6.69763C20.2671 6.69763 19.1009 7.86377 19.1009 9.30228C19.1009 10.6512 20.1264 11.7607 21.4404 11.8936C19.7999 12.1897 18.2221 12.7615 16.7742 13.5836L15.5749 12.3844C14.5577 11.3672 12.9085 11.3672 11.8914 12.3844C10.8742 13.4016 10.8742 15.0507 11.8914 16.0679L12.7551 16.9316C11.059 18.9531 9.92596 21.4048 9.49561 24.0379C9.08977 26.5209 9.32769 29.0501 10.1648 31.3902C10.6945 32.8709 12.4715 33.3108 13.8231 32.5071C15.1747 31.7034 15.5669 29.9517 15.2201 28.4179C14.965 27.29 14.9262 26.115 15.1155 24.9564C15.4595 22.852 16.5343 20.9362 18.1509 19.5457C19.7676 18.1553 21.8226 17.3793 23.9548 17.3541C26.087 17.3288 28.1598 18.056 29.8089 19.4078C31.458 20.7596 32.5778 22.6494 32.9714 24.7451C33.3651 26.8408 33.0073 29.0082 31.9612 30.8662C30.915 32.7243 29.2473 34.1541 27.2513 34.9042C26.1524 35.3173 24.9927 35.5097 23.8366 35.481C22.2646 35.4419 20.6239 36.1702 20.101 37.6532C19.5781 39.1362 20.3582 40.7923 21.914 41.0212C24.3729 41.3829 26.8996 41.1199 29.2547 40.2347C32.5046 39.0132 35.2198 36.6853 36.9232 33.6601C38.6265 30.6348 39.209 27.106 38.568 23.6939C37.9271 20.2817 36.1039 17.2048 33.4189 15.0038C31.4739 13.4094 29.1668 12.3487 26.7232 11.9008C28.0776 11.8081 29.1475 10.6801 29.1475 9.30228Z"/>
</mask>
<path fill-rule="evenodd" clip-rule="evenodd" d="M29.1475 9.30228C29.1475 7.86377 27.9813 6.69763 26.5428 6.69763L21.7056 6.69763C20.2671 6.69763 19.1009 7.86377 19.1009 9.30228C19.1009 10.6512 20.1264 11.7607 21.4404 11.8936C19.7999 12.1897 18.2221 12.7615 16.7742 13.5836L15.5749 12.3844C14.5577 11.3672 12.9085 11.3672 11.8914 12.3844C10.8742 13.4016 10.8742 15.0507 11.8914 16.0679L12.7551 16.9316C11.059 18.9531 9.92596 21.4048 9.49561 24.0379C9.08977 26.5209 9.32769 29.0501 10.1648 31.3902C10.6945 32.8709 12.4715 33.3108 13.8231 32.5071C15.1747 31.7034 15.5669 29.9517 15.2201 28.4179C14.965 27.29 14.9262 26.115 15.1155 24.9564C15.4595 22.852 16.5343 20.9362 18.1509 19.5457C19.7676 18.1553 21.8226 17.3793 23.9548 17.3541C26.087 17.3288 28.1598 18.056 29.8089 19.4078C31.458 20.7596 32.5778 22.6494 32.9714 24.7451C33.3651 26.8408 33.0073 29.0082 31.9612 30.8662C30.915 32.7243 29.2473 34.1541 27.2513 34.9042C26.1524 35.3173 24.9927 35.5097 23.8366 35.481C22.2646 35.4419 20.6239 36.1702 20.101 37.6532C19.5781 39.1362 20.3582 40.7923 21.914 41.0212C24.3729 41.3829 26.8996 41.1199 29.2547 40.2347C32.5046 39.0132 35.2198 36.6853 36.9232 33.6601C38.6265 30.6348 39.209 27.106 38.568 23.6939C37.9271 20.2817 36.1039 17.2048 33.4189 15.0038C31.4739 13.4094 29.1668 12.3487 26.7232 11.9008C28.0776 11.8081 29.1475 10.6801 29.1475 9.30228Z" fill="url(#paint1_linear_1_40)"/>
<path d="M21.4404 11.8936L21.4528 11.7702L21.4624 12.0157L21.4404 11.8936ZM16.7742 13.5836L16.8354 13.6915L16.7533 13.7381L16.6865 13.6713L16.7742 13.5836ZM15.5749 12.3844L15.4872 12.4721L15.4872 12.4721L15.5749 12.3844ZM11.8914 12.3844L11.9791 12.4721L11.9791 12.4721L11.8914 12.3844ZM11.8914 16.0679L11.8037 16.1556L11.8037 16.1556L11.8914 16.0679ZM12.7551 16.9316L12.8428 16.8439L12.9232 16.9243L12.8501 17.0114L12.7551 16.9316ZM9.49561 24.0379L9.61802 24.0579L9.61802 24.0579L9.49561 24.0379ZM10.1648 31.3902L10.048 31.432L10.048 31.432L10.1648 31.3902ZM13.8231 32.5071L13.8865 32.6137L13.8865 32.6137L13.8231 32.5071ZM15.2201 28.4179L15.0991 28.4453L15.0991 28.4453L15.2201 28.4179ZM15.1155 24.9564L14.9931 24.9364L14.9931 24.9364L15.1155 24.9564ZM18.1509 19.5457L18.07 19.4517L18.07 19.4517L18.1509 19.5457ZM23.9548 17.3541L23.9533 17.23L23.9548 17.3541ZM32.9714 24.7451L32.8495 24.768L32.8495 24.768L32.9714 24.7451ZM31.9612 30.8662L32.0692 30.9271L32.0692 30.9271L31.9612 30.8662ZM27.2513 34.9042L27.295 35.0203L27.295 35.0203L27.2513 34.9042ZM23.8366 35.481L23.8397 35.357L23.8397 35.357L23.8366 35.481ZM20.101 37.6532L19.984 37.612L19.984 37.612L20.101 37.6532ZM21.914 41.0212L21.932 40.8985L21.932 40.8985L21.914 41.0212ZM29.2547 40.2347L29.2111 40.1186L29.2111 40.1186L29.2547 40.2347ZM36.9232 33.6601L36.8151 33.5992L36.9232 33.6601ZM38.568 23.6939L38.4461 23.7168L38.4461 23.7168L38.568 23.6939ZM33.4189 15.0038L33.3403 15.0997L33.3403 15.0997L33.4189 15.0038ZM26.7232 11.9008L26.7008 12.0228L26.7147 11.777L26.7232 11.9008ZM26.5428 6.5736C28.0498 6.5736 29.2715 7.79527 29.2715 9.30228L29.0234 9.30228C29.0234 7.93227 27.9128 6.82166 26.5428 6.82166L26.5428 6.5736ZM21.7056 6.5736L26.5428 6.5736L26.5428 6.82166L21.7056 6.82166L21.7056 6.5736ZM18.9769 9.30228C18.9769 7.79527 20.1986 6.5736 21.7056 6.5736L21.7056 6.82166C20.3356 6.82166 19.225 7.93227 19.225 9.30228L18.9769 9.30228ZM21.4279 12.017C20.0512 11.8778 18.9769 10.7156 18.9769 9.30228L19.225 9.30228C19.225 10.5869 20.2016 11.6436 21.4528 11.7702L21.4279 12.017ZM16.7129 13.4758C18.173 12.6467 19.7641 12.0701 21.4183 11.7715L21.4624 12.0157C19.8358 12.3093 18.2712 12.8763 16.8354 13.6915L16.7129 13.4758ZM16.6865 13.6713L15.4872 12.4721L15.6626 12.2967L16.8619 13.4959L16.6865 13.6713ZM15.4872 12.4721C14.5185 11.5033 12.9478 11.5033 11.9791 12.4721L11.8037 12.2967C12.8693 11.2311 14.597 11.2311 15.6626 12.2967L15.4872 12.4721ZM11.9791 12.4721C11.0103 13.4408 11.0103 15.0115 11.9791 15.9802L11.8037 16.1556C10.738 15.09 10.738 13.3623 11.8037 12.2967L11.9791 12.4721ZM11.9791 15.9802L12.8428 16.8439L12.6674 17.0193L11.8037 16.1556L11.9791 15.9802ZM9.37321 24.0178C9.80717 21.3627 10.9497 18.8904 12.6601 16.8519L12.8501 17.0114C11.1683 19.0159 10.0447 21.447 9.61802 24.0579L9.37321 24.0178ZM10.048 31.432C9.20388 29.0722 8.96396 26.5218 9.37321 24.0178L9.61802 24.0579C9.21559 26.5201 9.45151 29.028 10.2816 31.3485L10.048 31.432ZM13.8865 32.6137C12.483 33.4482 10.6097 33.0019 10.048 31.432L10.2816 31.3485C10.7793 32.7398 12.4599 33.1734 13.7597 32.4005L13.8865 32.6137ZM15.341 28.3906C15.6944 29.9535 15.3019 31.7721 13.8865 32.6137L13.7597 32.4005C15.0474 31.6347 15.4393 29.9499 15.0991 28.4453L15.341 28.3906ZM15.2379 24.9764C15.0512 26.1192 15.0895 27.278 15.341 28.3906L15.0991 28.4453C14.8405 27.3019 14.8012 26.1108 14.9931 24.9364L15.2379 24.9764ZM18.2318 19.6398C16.6373 21.0112 15.5772 22.9008 15.2379 24.9764L14.9931 24.9364C15.3418 22.8032 16.4313 20.8612 18.07 19.4517L18.2318 19.6398ZM23.9562 17.4781C21.8532 17.503 19.8263 18.2684 18.2318 19.6398L18.07 19.4517C19.7088 18.0423 21.792 17.2556 23.9533 17.23L23.9562 17.4781ZM29.7303 19.5037C28.1037 18.1704 26.0593 17.4532 23.9562 17.4781L23.9533 17.23C26.1147 17.2045 28.2159 17.9416 29.8875 19.3119L29.7303 19.5037ZM32.8495 24.768C32.4613 22.701 31.3568 20.837 29.7303 19.5037L29.8875 19.3119C31.5592 20.6822 32.6943 22.5979 33.0933 24.7222L32.8495 24.768ZM31.8531 30.8054C32.885 28.9727 33.2378 26.835 32.8495 24.768L33.0933 24.7222C33.4923 26.8466 33.1297 29.0436 32.0692 30.9271L31.8531 30.8054ZM27.2077 34.7881C29.1764 34.0482 30.8212 32.638 31.8531 30.8054L32.0692 30.9271C31.0088 32.8105 29.3183 34.2599 27.295 35.0203L27.2077 34.7881ZM23.8397 35.357C24.9799 35.3854 26.1238 35.1955 27.2077 34.7881L27.295 35.0203C26.181 35.439 25.0054 35.6341 23.8335 35.605L23.8397 35.357ZM19.984 37.612C20.5316 36.0589 22.2378 35.3172 23.8397 35.357L23.8335 35.605C22.2914 35.5666 20.7162 36.2815 20.218 37.6945L19.984 37.612ZM21.8959 41.1439C20.2463 40.9013 19.4411 39.1519 19.984 37.612L20.218 37.6945C19.7152 39.1206 20.4701 40.6834 21.932 40.8985L21.8959 41.1439ZM29.2984 40.3508C26.9234 41.2434 24.3755 41.5086 21.8959 41.1439L21.932 40.8985C24.3703 41.2571 26.8757 40.9963 29.2111 40.1186L29.2984 40.3508ZM37.0313 33.7209C35.3136 36.7716 32.5755 39.1191 29.2984 40.3508L29.2111 40.1186C32.4336 38.9074 35.1261 36.599 36.8151 33.5992L37.0313 33.7209ZM38.6899 23.671C39.3362 27.1118 38.7489 30.6703 37.0313 33.7209L36.8151 33.5992C38.5042 30.5994 39.0817 27.1002 38.4461 23.7168L38.6899 23.671ZM33.4975 14.9079C36.2051 17.1273 38.0436 20.2302 38.6899 23.671L38.4461 23.7168C37.8106 20.3333 36.0027 17.2822 33.3403 15.0997L33.4975 14.9079ZM26.7456 11.7788C29.2097 12.2305 31.5361 13.3001 33.4975 14.9079L33.3403 15.0997C31.4116 13.5188 29.1239 12.467 26.7008 12.0228L26.7456 11.7788ZM29.2715 9.30228C29.2715 10.7458 28.1506 11.9275 26.7317 12.0245L26.7147 11.777C28.0045 11.6888 29.0234 10.6145 29.0234 9.30228L29.2715 9.30228Z" fill="white" fill-opacity="0.1" mask="url(#path-3-outside-1_1_40)"/>
<path d="M21.4404 11.8936L21.4528 11.7702L21.4624 12.0157L21.4404 11.8936ZM16.7742 13.5836L16.8354 13.6915L16.7533 13.7381L16.6865 13.6713L16.7742 13.5836ZM15.5749 12.3844L15.4872 12.4721L15.4872 12.4721L15.5749 12.3844ZM11.8914 12.3844L11.9791 12.4721L11.9791 12.4721L11.8914 12.3844ZM11.8914 16.0679L11.8037 16.1556L11.8037 16.1556L11.8914 16.0679ZM12.7551 16.9316L12.8428 16.8439L12.9232 16.9243L12.8501 17.0114L12.7551 16.9316ZM9.49561 24.0379L9.61802 24.0579L9.61802 24.0579L9.49561 24.0379ZM10.1648 31.3902L10.048 31.432L10.048 31.432L10.1648 31.3902ZM13.8231 32.5071L13.8865 32.6137L13.8865 32.6137L13.8231 32.5071ZM15.2201 28.4179L15.0991 28.4453L15.0991 28.4453L15.2201 28.4179ZM15.1155 24.9564L14.9931 24.9364L14.9931 24.9364L15.1155 24.9564ZM18.1509 19.5457L18.07 19.4517L18.07 19.4517L18.1509 19.5457ZM23.9548 17.3541L23.9533 17.23L23.9548 17.3541ZM32.9714 24.7451L32.8495 24.768L32.8495 24.768L32.9714 24.7451ZM31.9612 30.8662L32.0692 30.9271L32.0692 30.9271L31.9612 30.8662ZM27.2513 34.9042L27.295 35.0203L27.295 35.0203L27.2513 34.9042ZM23.8366 35.481L23.8397 35.357L23.8397 35.357L23.8366 35.481ZM20.101 37.6532L19.984 37.612L19.984 37.612L20.101 37.6532ZM21.914 41.0212L21.932 40.8985L21.932 40.8985L21.914 41.0212ZM29.2547 40.2347L29.2111 40.1186L29.2111 40.1186L29.2547 40.2347ZM36.9232 33.6601L36.8151 33.5992L36.9232 33.6601ZM38.568 23.6939L38.4461 23.7168L38.4461 23.7168L38.568 23.6939ZM33.4189 15.0038L33.3403 15.0997L33.3403 15.0997L33.4189 15.0038ZM26.7232 11.9008L26.7008 12.0228L26.7147 11.777L26.7232 11.9008ZM26.5428 6.5736C28.0498 6.5736 29.2715 7.79527 29.2715 9.30228L29.0234 9.30228C29.0234 7.93227 27.9128 6.82166 26.5428 6.82166L26.5428 6.5736ZM21.7056 6.5736L26.5428 6.5736L26.5428 6.82166L21.7056 6.82166L21.7056 6.5736ZM18.9769 9.30228C18.9769 7.79527 20.1986 6.5736 21.7056 6.5736L21.7056 6.82166C20.3356 6.82166 19.225 7.93227 19.225 9.30228L18.9769 9.30228ZM21.4279 12.017C20.0512 11.8778 18.9769 10.7156 18.9769 9.30228L19.225 9.30228C19.225 10.5869 20.2016 11.6436 21.4528 11.7702L21.4279 12.017ZM16.7129 13.4758C18.173 12.6467 19.7641 12.0701 21.4183 11.7715L21.4624 12.0157C19.8358 12.3093 18.2712 12.8763 16.8354 13.6915L16.7129 13.4758ZM16.6865 13.6713L15.4872 12.4721L15.6626 12.2967L16.8619 13.4959L16.6865 13.6713ZM15.4872 12.4721C14.5185 11.5033 12.9478 11.5033 11.9791 12.4721L11.8037 12.2967C12.8693 11.2311 14.597 11.2311 15.6626 12.2967L15.4872 12.4721ZM11.9791 12.4721C11.0103 13.4408 11.0103 15.0115 11.9791 15.9802L11.8037 16.1556C10.738 15.09 10.738 13.3623 11.8037 12.2967L11.9791 12.4721ZM11.9791 15.9802L12.8428 16.8439L12.6674 17.0193L11.8037 16.1556L11.9791 15.9802ZM9.37321 24.0178C9.80717 21.3627 10.9497 18.8904 12.6601 16.8519L12.8501 17.0114C11.1683 19.0159 10.0447 21.447 9.61802 24.0579L9.37321 24.0178ZM10.048 31.432C9.20388 29.0722 8.96396 26.5218 9.37321 24.0178L9.61802 24.0579C9.21559 26.5201 9.45151 29.028 10.2816 31.3485L10.048 31.432ZM13.8865 32.6137C12.483 33.4482 10.6097 33.0019 10.048 31.432L10.2816 31.3485C10.7793 32.7398 12.4599 33.1734 13.7597 32.4005L13.8865 32.6137ZM15.341 28.3906C15.6944 29.9535 15.3019 31.7721 13.8865 32.6137L13.7597 32.4005C15.0474 31.6347 15.4393 29.9499 15.0991 28.4453L15.341 28.3906ZM15.2379 24.9764C15.0512 26.1192 15.0895 27.278 15.341 28.3906L15.0991 28.4453C14.8405 27.3019 14.8012 26.1108 14.9931 24.9364L15.2379 24.9764ZM18.2318 19.6398C16.6373 21.0112 15.5772 22.9008 15.2379 24.9764L14.9931 24.9364C15.3418 22.8032 16.4313 20.8612 18.07 19.4517L18.2318 19.6398ZM23.9562 17.4781C21.8532 17.503 19.8263 18.2684 18.2318 19.6398L18.07 19.4517C19.7088 18.0423 21.792 17.2556 23.9533 17.23L23.9562 17.4781ZM29.7303 19.5037C28.1037 18.1704 26.0593 17.4532 23.9562 17.4781L23.9533 17.23C26.1147 17.2045 28.2159 17.9416 29.8875 19.3119L29.7303 19.5037ZM32.8495 24.768C32.4613 22.701 31.3568 20.837 29.7303 19.5037L29.8875 19.3119C31.5592 20.6822 32.6943 22.5979 33.0933 24.7222L32.8495 24.768ZM31.8531 30.8054C32.885 28.9727 33.2378 26.835 32.8495 24.768L33.0933 24.7222C33.4923 26.8466 33.1297 29.0436 32.0692 30.9271L31.8531 30.8054ZM27.2077 34.7881C29.1764 34.0482 30.8212 32.638 31.8531 30.8054L32.0692 30.9271C31.0088 32.8105 29.3183 34.2599 27.295 35.0203L27.2077 34.7881ZM23.8397 35.357C24.9799 35.3854 26.1238 35.1955 27.2077 34.7881L27.295 35.0203C26.181 35.439 25.0054 35.6341 23.8335 35.605L23.8397 35.357ZM19.984 37.612C20.5316 36.0589 22.2378 35.3172 23.8397 35.357L23.8335 35.605C22.2914 35.5666 20.7162 36.2815 20.218 37.6945L19.984 37.612ZM21.8959 41.1439C20.2463 40.9013 19.4411 39.1519 19.984 37.612L20.218 37.6945C19.7152 39.1206 20.4701 40.6834 21.932 40.8985L21.8959 41.1439ZM29.2984 40.3508C26.9234 41.2434 24.3755 41.5086 21.8959 41.1439L21.932 40.8985C24.3703 41.2571 26.8757 40.9963 29.2111 40.1186L29.2984 40.3508ZM37.0313 33.7209C35.3136 36.7716 32.5755 39.1191 29.2984 40.3508L29.2111 40.1186C32.4336 38.9074 35.1261 36.599 36.8151 33.5992L37.0313 33.7209ZM38.6899 23.671C39.3362 27.1118 38.7489 30.6703 37.0313 33.7209L36.8151 33.5992C38.5042 30.5994 39.0817 27.1002 38.4461 23.7168L38.6899 23.671ZM33.4975 14.9079C36.2051 17.1273 38.0436 20.2302 38.6899 23.671L38.4461 23.7168C37.8106 20.3333 36.0027 17.2822 33.3403 15.0997L33.4975 14.9079ZM26.7456 11.7788C29.2097 12.2305 31.5361 13.3001 33.4975 14.9079L33.3403 15.0997C31.4116 13.5188 29.1239 12.467 26.7008 12.0228L26.7456 11.7788ZM29.2715 9.30228C29.2715 10.7458 28.1506 11.9275 26.7317 12.0245L26.7147 11.777C28.0045 11.6888 29.0234 10.6145 29.0234 9.30228L29.2715 9.30228Z" fill="black" fill-opacity="0.1" mask="url(#path-3-outside-1_1_40)"/>
<g filter="url(#filter0_f_1_40)">
<ellipse cx="9.05426" cy="7.87597" rx="9.05426" ry="7.87597" transform="matrix(-1 8.74228e-08 8.74228e-08 1 31.5037 31.3799)" fill="url(#paint2_linear_1_40)"/>
</g>
</g>
<defs>
<filter id="filter0_f_1_40" x="9.17815" y="27.1628" width="26.5426" height="24.186" filterUnits="userSpaceOnUse" color-interpolation-filters="sRGB">
<feFlood flood-opacity="0" result="BackgroundImageFix"/>
<feBlend mode="normal" in="SourceGraphic" in2="BackgroundImageFix" result="shape"/>
<feGaussianBlur stdDeviation="2.10853" result="effect1_foregroundBlur_1_40"/>
</filter>
<linearGradient id="paint0_linear_1_40" x1="44.031" y1="2.04651" x2="3.41085" y2="48.8062" gradientUnits="userSpaceOnUse">
<stop stop-color="#E52727"/>
<stop offset="1" stop-color="#9C2222"/>
</linearGradient>
<linearGradient id="paint1_linear_1_40" x1="14.2291" y1="15.1168" x2="24.062" y2="48.6201" gradientUnits="userSpaceOnUse">
<stop stop-color="white"/>
<stop offset="0.405" stop-color="white" stop-opacity="0.2"/>
<stop offset="0.65" stop-color="white" stop-opacity="0.07"/>
<stop offset="0.8" stop-color="white" stop-opacity="0"/>
</linearGradient>
<linearGradient id="paint2_linear_1_40" x1="11.2248" y1="5.70542" x2="2.35659" y2="16.3721" gradientUnits="userSpaceOnUse">
<stop stop-color="#BB2626"/>
<stop offset="1" stop-color="#A72222"/>
</linearGradient>
<clipPath id="clip0_1_40">
<rect width="48" height="48" fill="white"/>
</clipPath>
</defs>
</svg>
